M48
; DRILL file {KiCad (7.0.0)} date Tue Aug  1 12:50:05 2023
; FORMAT={-:-/ absolute / inch / decimal}
; #@! TF.CreationDate,2023-08-01T12:50:05+01:00
; #@! TF.GenerationSoftware,Kicad,Pcbnew,(7.0.0)
; #@! TF.FileFunction,Plated,1,2,PTH
FMAT,2
INCH
; #@! TA.AperFunction,Plated,PTH,ViaDrill
T1C0.0118
; #@! TA.AperFunction,Plated,PTH,ViaDrill
T2C0.0157
; #@! TA.AperFunction,Plated,PTH,ComponentDrill
T3C0.0394
%
G90
G05
T1
X4.813Y-3.6516
X4.9803Y-3.937
X5.0689Y-3.6909
X5.128Y-3.7205
X5.1673Y-3.7303
X5.1969Y-4.1339
X5.1969Y-4.2224
X5.4418Y-4.0366
X5.4429Y-4.2421
T2
X4.7441Y-4.1634
X4.8031Y-4.0945
X4.9311Y-3.7992
X5.0197Y-4.1339
X5.0446Y-3.8635
T3
X4.7343Y-3.6614
X4.7343Y-3.7614
X4.7343Y-3.8614
X4.7343Y-3.9614
X4.7343Y-4.0614
X5.561Y-3.687
X5.561Y-3.787
X5.561Y-3.887
X5.561Y-3.987
X5.561Y-4.087
X5.561Y-4.187
T0
M30
