%TF.GenerationSoftware,KiCad,Pcbnew,(7.0.0)*%
%TF.CreationDate,2023-08-01T12:49:58+01:00*%
%TF.ProjectId,TAStable,54415374-6162-46c6-952e-6b696361645f,rev?*%
%TF.SameCoordinates,Original*%
%TF.FileFunction,Legend,Bot*%
%TF.FilePolarity,Positive*%
%FSLAX46Y46*%
G04 Gerber Fmt 4.6, Leading zero omitted, Abs format (unit mm)*
G04 Created by KiCad (PCBNEW (7.0.0)) date 2023-08-01 12:49:58*
%MOMM*%
%LPD*%
G01*
G04 APERTURE LIST*
%ADD10C,0.300000*%
%ADD11C,0.200000*%
G04 APERTURE END LIST*
D10*
X138491665Y-101729642D02*
X138277380Y-101801071D01*
X138277380Y-101801071D02*
X137920237Y-101801071D01*
X137920237Y-101801071D02*
X137777380Y-101729642D01*
X137777380Y-101729642D02*
X137705951Y-101658214D01*
X137705951Y-101658214D02*
X137634522Y-101515357D01*
X137634522Y-101515357D02*
X137634522Y-101372500D01*
X137634522Y-101372500D02*
X137705951Y-101229642D01*
X137705951Y-101229642D02*
X137777380Y-101158214D01*
X137777380Y-101158214D02*
X137920237Y-101086785D01*
X137920237Y-101086785D02*
X138205951Y-101015357D01*
X138205951Y-101015357D02*
X138348808Y-100943928D01*
X138348808Y-100943928D02*
X138420237Y-100872500D01*
X138420237Y-100872500D02*
X138491665Y-100729642D01*
X138491665Y-100729642D02*
X138491665Y-100586785D01*
X138491665Y-100586785D02*
X138420237Y-100443928D01*
X138420237Y-100443928D02*
X138348808Y-100372500D01*
X138348808Y-100372500D02*
X138205951Y-100301071D01*
X138205951Y-100301071D02*
X137848808Y-100301071D01*
X137848808Y-100301071D02*
X137634522Y-100372500D01*
X136134523Y-101658214D02*
X136205951Y-101729642D01*
X136205951Y-101729642D02*
X136420237Y-101801071D01*
X136420237Y-101801071D02*
X136563094Y-101801071D01*
X136563094Y-101801071D02*
X136777380Y-101729642D01*
X136777380Y-101729642D02*
X136920237Y-101586785D01*
X136920237Y-101586785D02*
X136991666Y-101443928D01*
X136991666Y-101443928D02*
X137063094Y-101158214D01*
X137063094Y-101158214D02*
X137063094Y-100943928D01*
X137063094Y-100943928D02*
X136991666Y-100658214D01*
X136991666Y-100658214D02*
X136920237Y-100515357D01*
X136920237Y-100515357D02*
X136777380Y-100372500D01*
X136777380Y-100372500D02*
X136563094Y-100301071D01*
X136563094Y-100301071D02*
X136420237Y-100301071D01*
X136420237Y-100301071D02*
X136205951Y-100372500D01*
X136205951Y-100372500D02*
X136134523Y-100443928D01*
X134777380Y-101801071D02*
X135491666Y-101801071D01*
X135491666Y-101801071D02*
X135491666Y-100301071D01*
X138392857Y-104551071D02*
X138392857Y-103051071D01*
X137678571Y-104551071D02*
X137678571Y-103051071D01*
X137678571Y-103051071D02*
X136821428Y-104551071D01*
X136821428Y-104551071D02*
X136821428Y-103051071D01*
X138607142Y-92801071D02*
X138107142Y-94301071D01*
X138107142Y-94301071D02*
X137607142Y-92801071D01*
X136250000Y-94158214D02*
X136321428Y-94229642D01*
X136321428Y-94229642D02*
X136535714Y-94301071D01*
X136535714Y-94301071D02*
X136678571Y-94301071D01*
X136678571Y-94301071D02*
X136892857Y-94229642D01*
X136892857Y-94229642D02*
X137035714Y-94086785D01*
X137035714Y-94086785D02*
X137107143Y-93943928D01*
X137107143Y-93943928D02*
X137178571Y-93658214D01*
X137178571Y-93658214D02*
X137178571Y-93443928D01*
X137178571Y-93443928D02*
X137107143Y-93158214D01*
X137107143Y-93158214D02*
X137035714Y-93015357D01*
X137035714Y-93015357D02*
X136892857Y-92872500D01*
X136892857Y-92872500D02*
X136678571Y-92801071D01*
X136678571Y-92801071D02*
X136535714Y-92801071D01*
X136535714Y-92801071D02*
X136321428Y-92872500D01*
X136321428Y-92872500D02*
X136250000Y-92943928D01*
X134750000Y-94158214D02*
X134821428Y-94229642D01*
X134821428Y-94229642D02*
X135035714Y-94301071D01*
X135035714Y-94301071D02*
X135178571Y-94301071D01*
X135178571Y-94301071D02*
X135392857Y-94229642D01*
X135392857Y-94229642D02*
X135535714Y-94086785D01*
X135535714Y-94086785D02*
X135607143Y-93943928D01*
X135607143Y-93943928D02*
X135678571Y-93658214D01*
X135678571Y-93658214D02*
X135678571Y-93443928D01*
X135678571Y-93443928D02*
X135607143Y-93158214D01*
X135607143Y-93158214D02*
X135535714Y-93015357D01*
X135535714Y-93015357D02*
X135392857Y-92872500D01*
X135392857Y-92872500D02*
X135178571Y-92801071D01*
X135178571Y-92801071D02*
X135035714Y-92801071D01*
X135035714Y-92801071D02*
X134821428Y-92872500D01*
X134821428Y-92872500D02*
X134750000Y-92943928D01*
X138491665Y-99229642D02*
X138277380Y-99301071D01*
X138277380Y-99301071D02*
X137920237Y-99301071D01*
X137920237Y-99301071D02*
X137777380Y-99229642D01*
X137777380Y-99229642D02*
X137705951Y-99158214D01*
X137705951Y-99158214D02*
X137634522Y-99015357D01*
X137634522Y-99015357D02*
X137634522Y-98872500D01*
X137634522Y-98872500D02*
X137705951Y-98729642D01*
X137705951Y-98729642D02*
X137777380Y-98658214D01*
X137777380Y-98658214D02*
X137920237Y-98586785D01*
X137920237Y-98586785D02*
X138205951Y-98515357D01*
X138205951Y-98515357D02*
X138348808Y-98443928D01*
X138348808Y-98443928D02*
X138420237Y-98372500D01*
X138420237Y-98372500D02*
X138491665Y-98229642D01*
X138491665Y-98229642D02*
X138491665Y-98086785D01*
X138491665Y-98086785D02*
X138420237Y-97943928D01*
X138420237Y-97943928D02*
X138348808Y-97872500D01*
X138348808Y-97872500D02*
X138205951Y-97801071D01*
X138205951Y-97801071D02*
X137848808Y-97801071D01*
X137848808Y-97801071D02*
X137634522Y-97872500D01*
X136991666Y-99301071D02*
X136991666Y-97801071D01*
X136991666Y-97801071D02*
X136634523Y-97801071D01*
X136634523Y-97801071D02*
X136420237Y-97872500D01*
X136420237Y-97872500D02*
X136277380Y-98015357D01*
X136277380Y-98015357D02*
X136205951Y-98158214D01*
X136205951Y-98158214D02*
X136134523Y-98443928D01*
X136134523Y-98443928D02*
X136134523Y-98658214D01*
X136134523Y-98658214D02*
X136205951Y-98943928D01*
X136205951Y-98943928D02*
X136277380Y-99086785D01*
X136277380Y-99086785D02*
X136420237Y-99229642D01*
X136420237Y-99229642D02*
X136634523Y-99301071D01*
X136634523Y-99301071D02*
X136991666Y-99301071D01*
X135563094Y-98872500D02*
X134848809Y-98872500D01*
X135705951Y-99301071D02*
X135205951Y-97801071D01*
X135205951Y-97801071D02*
X134705951Y-99301071D01*
X138107142Y-105551071D02*
X137821428Y-105551071D01*
X137821428Y-105551071D02*
X137678571Y-105622500D01*
X137678571Y-105622500D02*
X137535714Y-105765357D01*
X137535714Y-105765357D02*
X137464285Y-106051071D01*
X137464285Y-106051071D02*
X137464285Y-106551071D01*
X137464285Y-106551071D02*
X137535714Y-106836785D01*
X137535714Y-106836785D02*
X137678571Y-106979642D01*
X137678571Y-106979642D02*
X137821428Y-107051071D01*
X137821428Y-107051071D02*
X138107142Y-107051071D01*
X138107142Y-107051071D02*
X138250000Y-106979642D01*
X138250000Y-106979642D02*
X138392857Y-106836785D01*
X138392857Y-106836785D02*
X138464285Y-106551071D01*
X138464285Y-106551071D02*
X138464285Y-106051071D01*
X138464285Y-106051071D02*
X138392857Y-105765357D01*
X138392857Y-105765357D02*
X138250000Y-105622500D01*
X138250000Y-105622500D02*
X138107142Y-105551071D01*
X136821428Y-105551071D02*
X136821428Y-106765357D01*
X136821428Y-106765357D02*
X136749999Y-106908214D01*
X136749999Y-106908214D02*
X136678571Y-106979642D01*
X136678571Y-106979642D02*
X136535713Y-107051071D01*
X136535713Y-107051071D02*
X136249999Y-107051071D01*
X136249999Y-107051071D02*
X136107142Y-106979642D01*
X136107142Y-106979642D02*
X136035713Y-106908214D01*
X136035713Y-106908214D02*
X135964285Y-106765357D01*
X135964285Y-106765357D02*
X135964285Y-105551071D01*
X135464284Y-105551071D02*
X134607142Y-105551071D01*
X135035713Y-107051071D02*
X135035713Y-105551071D01*
X137634522Y-95372500D02*
X137777380Y-95301071D01*
X137777380Y-95301071D02*
X137991665Y-95301071D01*
X137991665Y-95301071D02*
X138205951Y-95372500D01*
X138205951Y-95372500D02*
X138348808Y-95515357D01*
X138348808Y-95515357D02*
X138420237Y-95658214D01*
X138420237Y-95658214D02*
X138491665Y-95943928D01*
X138491665Y-95943928D02*
X138491665Y-96158214D01*
X138491665Y-96158214D02*
X138420237Y-96443928D01*
X138420237Y-96443928D02*
X138348808Y-96586785D01*
X138348808Y-96586785D02*
X138205951Y-96729642D01*
X138205951Y-96729642D02*
X137991665Y-96801071D01*
X137991665Y-96801071D02*
X137848808Y-96801071D01*
X137848808Y-96801071D02*
X137634522Y-96729642D01*
X137634522Y-96729642D02*
X137563094Y-96658214D01*
X137563094Y-96658214D02*
X137563094Y-96158214D01*
X137563094Y-96158214D02*
X137848808Y-96158214D01*
X136920237Y-96801071D02*
X136920237Y-95301071D01*
X136920237Y-95301071D02*
X136063094Y-96801071D01*
X136063094Y-96801071D02*
X136063094Y-95301071D01*
X135348808Y-96801071D02*
X135348808Y-95301071D01*
X135348808Y-95301071D02*
X134991665Y-95301071D01*
X134991665Y-95301071D02*
X134777379Y-95372500D01*
X134777379Y-95372500D02*
X134634522Y-95515357D01*
X134634522Y-95515357D02*
X134563093Y-95658214D01*
X134563093Y-95658214D02*
X134491665Y-95943928D01*
X134491665Y-95943928D02*
X134491665Y-96158214D01*
X134491665Y-96158214D02*
X134563093Y-96443928D01*
X134563093Y-96443928D02*
X134634522Y-96586785D01*
X134634522Y-96586785D02*
X134777379Y-96729642D01*
X134777379Y-96729642D02*
X134991665Y-96801071D01*
X134991665Y-96801071D02*
X135348808Y-96801071D01*
D11*
X132000000Y-99050857D02*
X132000000Y-100022285D01*
X132000000Y-100022285D02*
X132071428Y-100136571D01*
X132071428Y-100136571D02*
X132142857Y-100193714D01*
X132142857Y-100193714D02*
X132285714Y-100250857D01*
X132285714Y-100250857D02*
X132500000Y-100250857D01*
X132500000Y-100250857D02*
X132642857Y-100193714D01*
X132000000Y-99793714D02*
X132142857Y-99850857D01*
X132142857Y-99850857D02*
X132428571Y-99850857D01*
X132428571Y-99850857D02*
X132571428Y-99793714D01*
X132571428Y-99793714D02*
X132642857Y-99736571D01*
X132642857Y-99736571D02*
X132714285Y-99622285D01*
X132714285Y-99622285D02*
X132714285Y-99279428D01*
X132714285Y-99279428D02*
X132642857Y-99165142D01*
X132642857Y-99165142D02*
X132571428Y-99108000D01*
X132571428Y-99108000D02*
X132428571Y-99050857D01*
X132428571Y-99050857D02*
X132142857Y-99050857D01*
X132142857Y-99050857D02*
X132000000Y-99108000D01*
X131285714Y-99850857D02*
X131285714Y-99050857D01*
X131285714Y-98650857D02*
X131357142Y-98708000D01*
X131357142Y-98708000D02*
X131285714Y-98765142D01*
X131285714Y-98765142D02*
X131214285Y-98708000D01*
X131214285Y-98708000D02*
X131285714Y-98650857D01*
X131285714Y-98650857D02*
X131285714Y-98765142D01*
X130785713Y-99050857D02*
X130214285Y-99050857D01*
X130571428Y-98650857D02*
X130571428Y-99679428D01*
X130571428Y-99679428D02*
X130499999Y-99793714D01*
X130499999Y-99793714D02*
X130357142Y-99850857D01*
X130357142Y-99850857D02*
X130214285Y-99850857D01*
X129714285Y-99850857D02*
X129714285Y-98650857D01*
X129071428Y-99850857D02*
X129071428Y-99222285D01*
X129071428Y-99222285D02*
X129142856Y-99108000D01*
X129142856Y-99108000D02*
X129285713Y-99050857D01*
X129285713Y-99050857D02*
X129499999Y-99050857D01*
X129499999Y-99050857D02*
X129642856Y-99108000D01*
X129642856Y-99108000D02*
X129714285Y-99165142D01*
X127714285Y-99050857D02*
X127714285Y-99850857D01*
X128357142Y-99050857D02*
X128357142Y-99679428D01*
X128357142Y-99679428D02*
X128285713Y-99793714D01*
X128285713Y-99793714D02*
X128142856Y-99850857D01*
X128142856Y-99850857D02*
X127928570Y-99850857D01*
X127928570Y-99850857D02*
X127785713Y-99793714D01*
X127785713Y-99793714D02*
X127714285Y-99736571D01*
X126999999Y-99850857D02*
X126999999Y-98650857D01*
X126999999Y-99108000D02*
X126857142Y-99050857D01*
X126857142Y-99050857D02*
X126571427Y-99050857D01*
X126571427Y-99050857D02*
X126428570Y-99108000D01*
X126428570Y-99108000D02*
X126357142Y-99165142D01*
X126357142Y-99165142D02*
X126285713Y-99279428D01*
X126285713Y-99279428D02*
X126285713Y-99622285D01*
X126285713Y-99622285D02*
X126357142Y-99736571D01*
X126357142Y-99736571D02*
X126428570Y-99793714D01*
X126428570Y-99793714D02*
X126571427Y-99850857D01*
X126571427Y-99850857D02*
X126857142Y-99850857D01*
X126857142Y-99850857D02*
X126999999Y-99793714D01*
X124571427Y-98593714D02*
X125857141Y-100136571D01*
X132642857Y-101794857D02*
X132642857Y-100994857D01*
X132642857Y-101223428D02*
X132571428Y-101109142D01*
X132571428Y-101109142D02*
X132500000Y-101052000D01*
X132500000Y-101052000D02*
X132357142Y-100994857D01*
X132357142Y-100994857D02*
X132214285Y-100994857D01*
X131071429Y-101794857D02*
X131071429Y-101166285D01*
X131071429Y-101166285D02*
X131142857Y-101052000D01*
X131142857Y-101052000D02*
X131285714Y-100994857D01*
X131285714Y-100994857D02*
X131571429Y-100994857D01*
X131571429Y-100994857D02*
X131714286Y-101052000D01*
X131071429Y-101737714D02*
X131214286Y-101794857D01*
X131214286Y-101794857D02*
X131571429Y-101794857D01*
X131571429Y-101794857D02*
X131714286Y-101737714D01*
X131714286Y-101737714D02*
X131785714Y-101623428D01*
X131785714Y-101623428D02*
X131785714Y-101509142D01*
X131785714Y-101509142D02*
X131714286Y-101394857D01*
X131714286Y-101394857D02*
X131571429Y-101337714D01*
X131571429Y-101337714D02*
X131214286Y-101337714D01*
X131214286Y-101337714D02*
X131071429Y-101280571D01*
X130428571Y-101737714D02*
X130285714Y-101794857D01*
X130285714Y-101794857D02*
X130000000Y-101794857D01*
X130000000Y-101794857D02*
X129857143Y-101737714D01*
X129857143Y-101737714D02*
X129785714Y-101623428D01*
X129785714Y-101623428D02*
X129785714Y-101566285D01*
X129785714Y-101566285D02*
X129857143Y-101452000D01*
X129857143Y-101452000D02*
X130000000Y-101394857D01*
X130000000Y-101394857D02*
X130214286Y-101394857D01*
X130214286Y-101394857D02*
X130357143Y-101337714D01*
X130357143Y-101337714D02*
X130428571Y-101223428D01*
X130428571Y-101223428D02*
X130428571Y-101166285D01*
X130428571Y-101166285D02*
X130357143Y-101052000D01*
X130357143Y-101052000D02*
X130214286Y-100994857D01*
X130214286Y-100994857D02*
X130000000Y-100994857D01*
X130000000Y-100994857D02*
X129857143Y-101052000D01*
X129357142Y-100994857D02*
X128785714Y-100994857D01*
X129142857Y-100594857D02*
X129142857Y-101623428D01*
X129142857Y-101623428D02*
X129071428Y-101737714D01*
X129071428Y-101737714D02*
X128928571Y-101794857D01*
X128928571Y-101794857D02*
X128785714Y-101794857D01*
X127714285Y-101737714D02*
X127857142Y-101794857D01*
X127857142Y-101794857D02*
X128142857Y-101794857D01*
X128142857Y-101794857D02*
X128285714Y-101737714D01*
X128285714Y-101737714D02*
X128357142Y-101623428D01*
X128357142Y-101623428D02*
X128357142Y-101166285D01*
X128357142Y-101166285D02*
X128285714Y-101052000D01*
X128285714Y-101052000D02*
X128142857Y-100994857D01*
X128142857Y-100994857D02*
X127857142Y-100994857D01*
X127857142Y-100994857D02*
X127714285Y-101052000D01*
X127714285Y-101052000D02*
X127642857Y-101166285D01*
X127642857Y-101166285D02*
X127642857Y-101280571D01*
X127642857Y-101280571D02*
X128357142Y-101394857D01*
X127000000Y-101794857D02*
X127000000Y-100994857D01*
X127000000Y-101223428D02*
X126928571Y-101109142D01*
X126928571Y-101109142D02*
X126857143Y-101052000D01*
X126857143Y-101052000D02*
X126714285Y-100994857D01*
X126714285Y-100994857D02*
X126571428Y-100994857D01*
X126071429Y-101794857D02*
X126071429Y-100994857D01*
X126071429Y-100594857D02*
X126142857Y-100652000D01*
X126142857Y-100652000D02*
X126071429Y-100709142D01*
X126071429Y-100709142D02*
X126000000Y-100652000D01*
X126000000Y-100652000D02*
X126071429Y-100594857D01*
X126071429Y-100594857D02*
X126071429Y-100709142D01*
X124285714Y-100537714D02*
X125571428Y-102080571D01*
X132857142Y-102538857D02*
X132000000Y-102538857D01*
X132428571Y-103738857D02*
X132428571Y-102538857D01*
X131571428Y-103396000D02*
X130857143Y-103396000D01*
X131714285Y-103738857D02*
X131214285Y-102538857D01*
X131214285Y-102538857D02*
X130714285Y-103738857D01*
X130285714Y-103681714D02*
X130071429Y-103738857D01*
X130071429Y-103738857D02*
X129714286Y-103738857D01*
X129714286Y-103738857D02*
X129571429Y-103681714D01*
X129571429Y-103681714D02*
X129500000Y-103624571D01*
X129500000Y-103624571D02*
X129428571Y-103510285D01*
X129428571Y-103510285D02*
X129428571Y-103396000D01*
X129428571Y-103396000D02*
X129500000Y-103281714D01*
X129500000Y-103281714D02*
X129571429Y-103224571D01*
X129571429Y-103224571D02*
X129714286Y-103167428D01*
X129714286Y-103167428D02*
X130000000Y-103110285D01*
X130000000Y-103110285D02*
X130142857Y-103053142D01*
X130142857Y-103053142D02*
X130214286Y-102996000D01*
X130214286Y-102996000D02*
X130285714Y-102881714D01*
X130285714Y-102881714D02*
X130285714Y-102767428D01*
X130285714Y-102767428D02*
X130214286Y-102653142D01*
X130214286Y-102653142D02*
X130142857Y-102596000D01*
X130142857Y-102596000D02*
X130000000Y-102538857D01*
X130000000Y-102538857D02*
X129642857Y-102538857D01*
X129642857Y-102538857D02*
X129428571Y-102596000D01*
X129000000Y-102938857D02*
X128428572Y-102938857D01*
X128785715Y-102538857D02*
X128785715Y-103567428D01*
X128785715Y-103567428D02*
X128714286Y-103681714D01*
X128714286Y-103681714D02*
X128571429Y-103738857D01*
X128571429Y-103738857D02*
X128428572Y-103738857D01*
X127285715Y-103738857D02*
X127285715Y-103110285D01*
X127285715Y-103110285D02*
X127357143Y-102996000D01*
X127357143Y-102996000D02*
X127500000Y-102938857D01*
X127500000Y-102938857D02*
X127785715Y-102938857D01*
X127785715Y-102938857D02*
X127928572Y-102996000D01*
X127285715Y-103681714D02*
X127428572Y-103738857D01*
X127428572Y-103738857D02*
X127785715Y-103738857D01*
X127785715Y-103738857D02*
X127928572Y-103681714D01*
X127928572Y-103681714D02*
X128000000Y-103567428D01*
X128000000Y-103567428D02*
X128000000Y-103453142D01*
X128000000Y-103453142D02*
X127928572Y-103338857D01*
X127928572Y-103338857D02*
X127785715Y-103281714D01*
X127785715Y-103281714D02*
X127428572Y-103281714D01*
X127428572Y-103281714D02*
X127285715Y-103224571D01*
X126571429Y-103738857D02*
X126571429Y-102538857D01*
X126571429Y-102996000D02*
X126428572Y-102938857D01*
X126428572Y-102938857D02*
X126142857Y-102938857D01*
X126142857Y-102938857D02*
X126000000Y-102996000D01*
X126000000Y-102996000D02*
X125928572Y-103053142D01*
X125928572Y-103053142D02*
X125857143Y-103167428D01*
X125857143Y-103167428D02*
X125857143Y-103510285D01*
X125857143Y-103510285D02*
X125928572Y-103624571D01*
X125928572Y-103624571D02*
X126000000Y-103681714D01*
X126000000Y-103681714D02*
X126142857Y-103738857D01*
X126142857Y-103738857D02*
X126428572Y-103738857D01*
X126428572Y-103738857D02*
X126571429Y-103681714D01*
X125000000Y-103738857D02*
X125142857Y-103681714D01*
X125142857Y-103681714D02*
X125214286Y-103567428D01*
X125214286Y-103567428D02*
X125214286Y-102538857D01*
X123857143Y-103681714D02*
X124000000Y-103738857D01*
X124000000Y-103738857D02*
X124285715Y-103738857D01*
X124285715Y-103738857D02*
X124428572Y-103681714D01*
X124428572Y-103681714D02*
X124500000Y-103567428D01*
X124500000Y-103567428D02*
X124500000Y-103110285D01*
X124500000Y-103110285D02*
X124428572Y-102996000D01*
X124428572Y-102996000D02*
X124285715Y-102938857D01*
X124285715Y-102938857D02*
X124000000Y-102938857D01*
X124000000Y-102938857D02*
X123857143Y-102996000D01*
X123857143Y-102996000D02*
X123785715Y-103110285D01*
X123785715Y-103110285D02*
X123785715Y-103224571D01*
X123785715Y-103224571D02*
X124500000Y-103338857D01*
M02*
