%TF.GenerationSoftware,KiCad,Pcbnew,(7.0.0)*%
%TF.CreationDate,2023-08-01T12:49:58+01:00*%
%TF.ProjectId,TAStable,54415374-6162-46c6-952e-6b696361645f,rev?*%
%TF.SameCoordinates,Original*%
%TF.FileFunction,Legend,Top*%
%TF.FilePolarity,Positive*%
%FSLAX46Y46*%
G04 Gerber Fmt 4.6, Leading zero omitted, Abs format (unit mm)*
G04 Created by KiCad (PCBNEW (7.0.0)) date 2023-08-01 12:49:58*
%MOMM*%
%LPD*%
G01*
G04 APERTURE LIST*
%ADD10C,0.300000*%
%ADD11C,0.150000*%
%ADD12C,0.120000*%
G04 APERTURE END LIST*
D10*
X138862816Y-96931345D02*
X139362816Y-96931345D01*
D11*
X122000000Y-98250000D02*
X123000000Y-98250000D01*
D10*
X138362816Y-96181345D02*
X139862816Y-96181345D01*
X138517047Y-103073096D02*
X139267047Y-103073096D01*
D11*
X122500000Y-97750000D02*
X122500000Y-98750000D01*
D10*
X138517047Y-104573096D02*
X139267047Y-104573096D01*
X138112816Y-95431345D02*
X140112816Y-95431345D01*
D11*
X124538748Y-97340000D02*
X125000000Y-97340000D01*
X125000000Y-97340000D02*
X125000000Y-99160000D01*
X125000000Y-99160000D02*
X124538748Y-99160000D01*
X124538748Y-99160000D02*
X124538748Y-97340000D01*
G36*
X124538748Y-97340000D02*
G01*
X125000000Y-97340000D01*
X125000000Y-99160000D01*
X124538748Y-99160000D01*
X124538748Y-97340000D01*
G37*
D10*
X138892047Y-103073096D02*
X138892047Y-104573096D01*
X138437090Y-93575073D02*
X139579948Y-93575073D01*
X139008519Y-94146502D02*
X139008519Y-93003645D01*
X138767024Y-105681922D02*
X139052738Y-105681922D01*
X139052738Y-105681922D02*
X139195595Y-105753351D01*
X139195595Y-105753351D02*
X139338452Y-105896208D01*
X139338452Y-105896208D02*
X139409881Y-106181922D01*
X139409881Y-106181922D02*
X139409881Y-106681922D01*
X139409881Y-106681922D02*
X139338452Y-106967636D01*
X139338452Y-106967636D02*
X139195595Y-107110493D01*
X139195595Y-107110493D02*
X139052738Y-107181922D01*
X139052738Y-107181922D02*
X138767024Y-107181922D01*
X138767024Y-107181922D02*
X138624167Y-107110493D01*
X138624167Y-107110493D02*
X138481309Y-106967636D01*
X138481309Y-106967636D02*
X138409881Y-106681922D01*
X138409881Y-106681922D02*
X138409881Y-106181922D01*
X138409881Y-106181922D02*
X138481309Y-105896208D01*
X138481309Y-105896208D02*
X138624167Y-105753351D01*
X138624167Y-105753351D02*
X138767024Y-105681922D01*
X138475670Y-99470614D02*
X138475670Y-97970614D01*
X138475670Y-97970614D02*
X138832813Y-97970614D01*
X138832813Y-97970614D02*
X139047099Y-98042043D01*
X139047099Y-98042043D02*
X139189956Y-98184900D01*
X139189956Y-98184900D02*
X139261385Y-98327757D01*
X139261385Y-98327757D02*
X139332813Y-98613471D01*
X139332813Y-98613471D02*
X139332813Y-98827757D01*
X139332813Y-98827757D02*
X139261385Y-99113471D01*
X139261385Y-99113471D02*
X139189956Y-99256328D01*
X139189956Y-99256328D02*
X139047099Y-99399185D01*
X139047099Y-99399185D02*
X138832813Y-99470614D01*
X138832813Y-99470614D02*
X138475670Y-99470614D01*
X139273929Y-101756692D02*
X139202501Y-101828120D01*
X139202501Y-101828120D02*
X138988215Y-101899549D01*
X138988215Y-101899549D02*
X138845358Y-101899549D01*
X138845358Y-101899549D02*
X138631072Y-101828120D01*
X138631072Y-101828120D02*
X138488215Y-101685263D01*
X138488215Y-101685263D02*
X138416786Y-101542406D01*
X138416786Y-101542406D02*
X138345358Y-101256692D01*
X138345358Y-101256692D02*
X138345358Y-101042406D01*
X138345358Y-101042406D02*
X138416786Y-100756692D01*
X138416786Y-100756692D02*
X138488215Y-100613835D01*
X138488215Y-100613835D02*
X138631072Y-100470978D01*
X138631072Y-100470978D02*
X138845358Y-100399549D01*
X138845358Y-100399549D02*
X138988215Y-100399549D01*
X138988215Y-100399549D02*
X139202501Y-100470978D01*
X139202501Y-100470978D02*
X139273929Y-100542406D01*
D11*
%TO.C,U2*%
X127988095Y-96243904D02*
X127988095Y-96891523D01*
X127988095Y-96891523D02*
X128035714Y-96967714D01*
X128035714Y-96967714D02*
X128083333Y-97005809D01*
X128083333Y-97005809D02*
X128178571Y-97043904D01*
X128178571Y-97043904D02*
X128369047Y-97043904D01*
X128369047Y-97043904D02*
X128464285Y-97005809D01*
X128464285Y-97005809D02*
X128511904Y-96967714D01*
X128511904Y-96967714D02*
X128559523Y-96891523D01*
X128559523Y-96891523D02*
X128559523Y-96243904D01*
X128988095Y-96320095D02*
X129035714Y-96282000D01*
X129035714Y-96282000D02*
X129130952Y-96243904D01*
X129130952Y-96243904D02*
X129369047Y-96243904D01*
X129369047Y-96243904D02*
X129464285Y-96282000D01*
X129464285Y-96282000D02*
X129511904Y-96320095D01*
X129511904Y-96320095D02*
X129559523Y-96396285D01*
X129559523Y-96396285D02*
X129559523Y-96472476D01*
X129559523Y-96472476D02*
X129511904Y-96586761D01*
X129511904Y-96586761D02*
X128940476Y-97043904D01*
X128940476Y-97043904D02*
X129559523Y-97043904D01*
%TO.C,C4*%
X134022238Y-102652399D02*
X133974619Y-102690494D01*
X133974619Y-102690494D02*
X133831762Y-102728589D01*
X133831762Y-102728589D02*
X133736524Y-102728589D01*
X133736524Y-102728589D02*
X133593667Y-102690494D01*
X133593667Y-102690494D02*
X133498429Y-102614304D01*
X133498429Y-102614304D02*
X133450810Y-102538113D01*
X133450810Y-102538113D02*
X133403191Y-102385732D01*
X133403191Y-102385732D02*
X133403191Y-102271446D01*
X133403191Y-102271446D02*
X133450810Y-102119065D01*
X133450810Y-102119065D02*
X133498429Y-102042875D01*
X133498429Y-102042875D02*
X133593667Y-101966685D01*
X133593667Y-101966685D02*
X133736524Y-101928589D01*
X133736524Y-101928589D02*
X133831762Y-101928589D01*
X133831762Y-101928589D02*
X133974619Y-101966685D01*
X133974619Y-101966685D02*
X134022238Y-102004780D01*
X134879381Y-102195256D02*
X134879381Y-102728589D01*
X134641286Y-101890494D02*
X134403191Y-102461923D01*
X134403191Y-102461923D02*
X135022238Y-102461923D01*
%TO.C,J1*%
X144041666Y-92503904D02*
X144041666Y-93075333D01*
X144041666Y-93075333D02*
X143994047Y-93189619D01*
X143994047Y-93189619D02*
X143898809Y-93265809D01*
X143898809Y-93265809D02*
X143755952Y-93303904D01*
X143755952Y-93303904D02*
X143660714Y-93303904D01*
X145041666Y-93303904D02*
X144470238Y-93303904D01*
X144755952Y-93303904D02*
X144755952Y-92503904D01*
X144755952Y-92503904D02*
X144660714Y-92618190D01*
X144660714Y-92618190D02*
X144565476Y-92694380D01*
X144565476Y-92694380D02*
X144470238Y-92732476D01*
%TO.C,R3*%
X132253747Y-97920505D02*
X131920414Y-97539553D01*
X131682319Y-97920505D02*
X131682319Y-97120505D01*
X131682319Y-97120505D02*
X132063271Y-97120505D01*
X132063271Y-97120505D02*
X132158509Y-97158601D01*
X132158509Y-97158601D02*
X132206128Y-97196696D01*
X132206128Y-97196696D02*
X132253747Y-97272886D01*
X132253747Y-97272886D02*
X132253747Y-97387172D01*
X132253747Y-97387172D02*
X132206128Y-97463362D01*
X132206128Y-97463362D02*
X132158509Y-97501458D01*
X132158509Y-97501458D02*
X132063271Y-97539553D01*
X132063271Y-97539553D02*
X131682319Y-97539553D01*
X132587081Y-97120505D02*
X133206128Y-97120505D01*
X133206128Y-97120505D02*
X132872795Y-97425267D01*
X132872795Y-97425267D02*
X133015652Y-97425267D01*
X133015652Y-97425267D02*
X133110890Y-97463362D01*
X133110890Y-97463362D02*
X133158509Y-97501458D01*
X133158509Y-97501458D02*
X133206128Y-97577648D01*
X133206128Y-97577648D02*
X133206128Y-97768124D01*
X133206128Y-97768124D02*
X133158509Y-97844315D01*
X133158509Y-97844315D02*
X133110890Y-97882410D01*
X133110890Y-97882410D02*
X133015652Y-97920505D01*
X133015652Y-97920505D02*
X132729938Y-97920505D01*
X132729938Y-97920505D02*
X132634700Y-97882410D01*
X132634700Y-97882410D02*
X132587081Y-97844315D01*
%TO.C,U3*%
X134318381Y-98075894D02*
X134318381Y-98723513D01*
X134318381Y-98723513D02*
X134366000Y-98799704D01*
X134366000Y-98799704D02*
X134413619Y-98837799D01*
X134413619Y-98837799D02*
X134508857Y-98875894D01*
X134508857Y-98875894D02*
X134699333Y-98875894D01*
X134699333Y-98875894D02*
X134794571Y-98837799D01*
X134794571Y-98837799D02*
X134842190Y-98799704D01*
X134842190Y-98799704D02*
X134889809Y-98723513D01*
X134889809Y-98723513D02*
X134889809Y-98075894D01*
X135270762Y-98075894D02*
X135889809Y-98075894D01*
X135889809Y-98075894D02*
X135556476Y-98380656D01*
X135556476Y-98380656D02*
X135699333Y-98380656D01*
X135699333Y-98380656D02*
X135794571Y-98418751D01*
X135794571Y-98418751D02*
X135842190Y-98456847D01*
X135842190Y-98456847D02*
X135889809Y-98533037D01*
X135889809Y-98533037D02*
X135889809Y-98723513D01*
X135889809Y-98723513D02*
X135842190Y-98799704D01*
X135842190Y-98799704D02*
X135794571Y-98837799D01*
X135794571Y-98837799D02*
X135699333Y-98875894D01*
X135699333Y-98875894D02*
X135413619Y-98875894D01*
X135413619Y-98875894D02*
X135318381Y-98837799D01*
X135318381Y-98837799D02*
X135270762Y-98799704D01*
%TO.C,U4*%
X121986723Y-101892888D02*
X122634342Y-101892888D01*
X122634342Y-101892888D02*
X122710533Y-101845269D01*
X122710533Y-101845269D02*
X122748628Y-101797650D01*
X122748628Y-101797650D02*
X122786723Y-101702412D01*
X122786723Y-101702412D02*
X122786723Y-101511936D01*
X122786723Y-101511936D02*
X122748628Y-101416698D01*
X122748628Y-101416698D02*
X122710533Y-101369079D01*
X122710533Y-101369079D02*
X122634342Y-101321460D01*
X122634342Y-101321460D02*
X121986723Y-101321460D01*
X122253390Y-100416698D02*
X122786723Y-100416698D01*
X121948628Y-100654793D02*
X122520057Y-100892888D01*
X122520057Y-100892888D02*
X122520057Y-100273841D01*
%TO.C,C8*%
X121675978Y-106349745D02*
X121628359Y-106387840D01*
X121628359Y-106387840D02*
X121485502Y-106425935D01*
X121485502Y-106425935D02*
X121390264Y-106425935D01*
X121390264Y-106425935D02*
X121247407Y-106387840D01*
X121247407Y-106387840D02*
X121152169Y-106311650D01*
X121152169Y-106311650D02*
X121104550Y-106235459D01*
X121104550Y-106235459D02*
X121056931Y-106083078D01*
X121056931Y-106083078D02*
X121056931Y-105968792D01*
X121056931Y-105968792D02*
X121104550Y-105816411D01*
X121104550Y-105816411D02*
X121152169Y-105740221D01*
X121152169Y-105740221D02*
X121247407Y-105664031D01*
X121247407Y-105664031D02*
X121390264Y-105625935D01*
X121390264Y-105625935D02*
X121485502Y-105625935D01*
X121485502Y-105625935D02*
X121628359Y-105664031D01*
X121628359Y-105664031D02*
X121675978Y-105702126D01*
X122247407Y-105968792D02*
X122152169Y-105930697D01*
X122152169Y-105930697D02*
X122104550Y-105892602D01*
X122104550Y-105892602D02*
X122056931Y-105816411D01*
X122056931Y-105816411D02*
X122056931Y-105778316D01*
X122056931Y-105778316D02*
X122104550Y-105702126D01*
X122104550Y-105702126D02*
X122152169Y-105664031D01*
X122152169Y-105664031D02*
X122247407Y-105625935D01*
X122247407Y-105625935D02*
X122437883Y-105625935D01*
X122437883Y-105625935D02*
X122533121Y-105664031D01*
X122533121Y-105664031D02*
X122580740Y-105702126D01*
X122580740Y-105702126D02*
X122628359Y-105778316D01*
X122628359Y-105778316D02*
X122628359Y-105816411D01*
X122628359Y-105816411D02*
X122580740Y-105892602D01*
X122580740Y-105892602D02*
X122533121Y-105930697D01*
X122533121Y-105930697D02*
X122437883Y-105968792D01*
X122437883Y-105968792D02*
X122247407Y-105968792D01*
X122247407Y-105968792D02*
X122152169Y-106006888D01*
X122152169Y-106006888D02*
X122104550Y-106044983D01*
X122104550Y-106044983D02*
X122056931Y-106121173D01*
X122056931Y-106121173D02*
X122056931Y-106273554D01*
X122056931Y-106273554D02*
X122104550Y-106349745D01*
X122104550Y-106349745D02*
X122152169Y-106387840D01*
X122152169Y-106387840D02*
X122247407Y-106425935D01*
X122247407Y-106425935D02*
X122437883Y-106425935D01*
X122437883Y-106425935D02*
X122533121Y-106387840D01*
X122533121Y-106387840D02*
X122580740Y-106349745D01*
X122580740Y-106349745D02*
X122628359Y-106273554D01*
X122628359Y-106273554D02*
X122628359Y-106121173D01*
X122628359Y-106121173D02*
X122580740Y-106044983D01*
X122580740Y-106044983D02*
X122533121Y-106006888D01*
X122533121Y-106006888D02*
X122437883Y-105968792D01*
%TO.C,R2*%
X133881821Y-94180004D02*
X133548488Y-93799052D01*
X133310393Y-94180004D02*
X133310393Y-93380004D01*
X133310393Y-93380004D02*
X133691345Y-93380004D01*
X133691345Y-93380004D02*
X133786583Y-93418100D01*
X133786583Y-93418100D02*
X133834202Y-93456195D01*
X133834202Y-93456195D02*
X133881821Y-93532385D01*
X133881821Y-93532385D02*
X133881821Y-93646671D01*
X133881821Y-93646671D02*
X133834202Y-93722861D01*
X133834202Y-93722861D02*
X133786583Y-93760957D01*
X133786583Y-93760957D02*
X133691345Y-93799052D01*
X133691345Y-93799052D02*
X133310393Y-93799052D01*
X134262774Y-93456195D02*
X134310393Y-93418100D01*
X134310393Y-93418100D02*
X134405631Y-93380004D01*
X134405631Y-93380004D02*
X134643726Y-93380004D01*
X134643726Y-93380004D02*
X134738964Y-93418100D01*
X134738964Y-93418100D02*
X134786583Y-93456195D01*
X134786583Y-93456195D02*
X134834202Y-93532385D01*
X134834202Y-93532385D02*
X134834202Y-93608576D01*
X134834202Y-93608576D02*
X134786583Y-93722861D01*
X134786583Y-93722861D02*
X134215155Y-94180004D01*
X134215155Y-94180004D02*
X134834202Y-94180004D01*
%TO.C,R1*%
X135596769Y-95604630D02*
X135263436Y-95223678D01*
X135025341Y-95604630D02*
X135025341Y-94804630D01*
X135025341Y-94804630D02*
X135406293Y-94804630D01*
X135406293Y-94804630D02*
X135501531Y-94842726D01*
X135501531Y-94842726D02*
X135549150Y-94880821D01*
X135549150Y-94880821D02*
X135596769Y-94957011D01*
X135596769Y-94957011D02*
X135596769Y-95071297D01*
X135596769Y-95071297D02*
X135549150Y-95147487D01*
X135549150Y-95147487D02*
X135501531Y-95185583D01*
X135501531Y-95185583D02*
X135406293Y-95223678D01*
X135406293Y-95223678D02*
X135025341Y-95223678D01*
X136549150Y-95604630D02*
X135977722Y-95604630D01*
X136263436Y-95604630D02*
X136263436Y-94804630D01*
X136263436Y-94804630D02*
X136168198Y-94918916D01*
X136168198Y-94918916D02*
X136072960Y-94995106D01*
X136072960Y-94995106D02*
X135977722Y-95033202D01*
%TO.C,C2*%
X132341909Y-105063971D02*
X132380004Y-105111590D01*
X132380004Y-105111590D02*
X132418099Y-105254447D01*
X132418099Y-105254447D02*
X132418099Y-105349685D01*
X132418099Y-105349685D02*
X132380004Y-105492542D01*
X132380004Y-105492542D02*
X132303814Y-105587780D01*
X132303814Y-105587780D02*
X132227623Y-105635399D01*
X132227623Y-105635399D02*
X132075242Y-105683018D01*
X132075242Y-105683018D02*
X131960956Y-105683018D01*
X131960956Y-105683018D02*
X131808575Y-105635399D01*
X131808575Y-105635399D02*
X131732385Y-105587780D01*
X131732385Y-105587780D02*
X131656195Y-105492542D01*
X131656195Y-105492542D02*
X131618099Y-105349685D01*
X131618099Y-105349685D02*
X131618099Y-105254447D01*
X131618099Y-105254447D02*
X131656195Y-105111590D01*
X131656195Y-105111590D02*
X131694290Y-105063971D01*
X131694290Y-104683018D02*
X131656195Y-104635399D01*
X131656195Y-104635399D02*
X131618099Y-104540161D01*
X131618099Y-104540161D02*
X131618099Y-104302066D01*
X131618099Y-104302066D02*
X131656195Y-104206828D01*
X131656195Y-104206828D02*
X131694290Y-104159209D01*
X131694290Y-104159209D02*
X131770480Y-104111590D01*
X131770480Y-104111590D02*
X131846671Y-104111590D01*
X131846671Y-104111590D02*
X131960956Y-104159209D01*
X131960956Y-104159209D02*
X132418099Y-104730637D01*
X132418099Y-104730637D02*
X132418099Y-104111590D01*
%TO.C,C6*%
X126640907Y-100270574D02*
X126593288Y-100308669D01*
X126593288Y-100308669D02*
X126450431Y-100346764D01*
X126450431Y-100346764D02*
X126355193Y-100346764D01*
X126355193Y-100346764D02*
X126212336Y-100308669D01*
X126212336Y-100308669D02*
X126117098Y-100232479D01*
X126117098Y-100232479D02*
X126069479Y-100156288D01*
X126069479Y-100156288D02*
X126021860Y-100003907D01*
X126021860Y-100003907D02*
X126021860Y-99889621D01*
X126021860Y-99889621D02*
X126069479Y-99737240D01*
X126069479Y-99737240D02*
X126117098Y-99661050D01*
X126117098Y-99661050D02*
X126212336Y-99584860D01*
X126212336Y-99584860D02*
X126355193Y-99546764D01*
X126355193Y-99546764D02*
X126450431Y-99546764D01*
X126450431Y-99546764D02*
X126593288Y-99584860D01*
X126593288Y-99584860D02*
X126640907Y-99622955D01*
X127498050Y-99546764D02*
X127307574Y-99546764D01*
X127307574Y-99546764D02*
X127212336Y-99584860D01*
X127212336Y-99584860D02*
X127164717Y-99622955D01*
X127164717Y-99622955D02*
X127069479Y-99737240D01*
X127069479Y-99737240D02*
X127021860Y-99889621D01*
X127021860Y-99889621D02*
X127021860Y-100194383D01*
X127021860Y-100194383D02*
X127069479Y-100270574D01*
X127069479Y-100270574D02*
X127117098Y-100308669D01*
X127117098Y-100308669D02*
X127212336Y-100346764D01*
X127212336Y-100346764D02*
X127402812Y-100346764D01*
X127402812Y-100346764D02*
X127498050Y-100308669D01*
X127498050Y-100308669D02*
X127545669Y-100270574D01*
X127545669Y-100270574D02*
X127593288Y-100194383D01*
X127593288Y-100194383D02*
X127593288Y-100003907D01*
X127593288Y-100003907D02*
X127545669Y-99927717D01*
X127545669Y-99927717D02*
X127498050Y-99889621D01*
X127498050Y-99889621D02*
X127402812Y-99851526D01*
X127402812Y-99851526D02*
X127212336Y-99851526D01*
X127212336Y-99851526D02*
X127117098Y-99889621D01*
X127117098Y-99889621D02*
X127069479Y-99927717D01*
X127069479Y-99927717D02*
X127021860Y-100003907D01*
%TO.C,C1*%
X131469489Y-95048852D02*
X131421870Y-95086947D01*
X131421870Y-95086947D02*
X131279013Y-95125042D01*
X131279013Y-95125042D02*
X131183775Y-95125042D01*
X131183775Y-95125042D02*
X131040918Y-95086947D01*
X131040918Y-95086947D02*
X130945680Y-95010757D01*
X130945680Y-95010757D02*
X130898061Y-94934566D01*
X130898061Y-94934566D02*
X130850442Y-94782185D01*
X130850442Y-94782185D02*
X130850442Y-94667899D01*
X130850442Y-94667899D02*
X130898061Y-94515518D01*
X130898061Y-94515518D02*
X130945680Y-94439328D01*
X130945680Y-94439328D02*
X131040918Y-94363138D01*
X131040918Y-94363138D02*
X131183775Y-94325042D01*
X131183775Y-94325042D02*
X131279013Y-94325042D01*
X131279013Y-94325042D02*
X131421870Y-94363138D01*
X131421870Y-94363138D02*
X131469489Y-94401233D01*
X132421870Y-95125042D02*
X131850442Y-95125042D01*
X132136156Y-95125042D02*
X132136156Y-94325042D01*
X132136156Y-94325042D02*
X132040918Y-94439328D01*
X132040918Y-94439328D02*
X131945680Y-94515518D01*
X131945680Y-94515518D02*
X131850442Y-94553614D01*
%TO.C,U1*%
X134340769Y-106828222D02*
X134988388Y-106828222D01*
X134988388Y-106828222D02*
X135064579Y-106780603D01*
X135064579Y-106780603D02*
X135102674Y-106732984D01*
X135102674Y-106732984D02*
X135140769Y-106637746D01*
X135140769Y-106637746D02*
X135140769Y-106447270D01*
X135140769Y-106447270D02*
X135102674Y-106352032D01*
X135102674Y-106352032D02*
X135064579Y-106304413D01*
X135064579Y-106304413D02*
X134988388Y-106256794D01*
X134988388Y-106256794D02*
X134340769Y-106256794D01*
X135140769Y-105256794D02*
X135140769Y-105828222D01*
X135140769Y-105542508D02*
X134340769Y-105542508D01*
X134340769Y-105542508D02*
X134455055Y-105637746D01*
X134455055Y-105637746D02*
X134531245Y-105732984D01*
X134531245Y-105732984D02*
X134569341Y-105828222D01*
%TO.C,U6*%
X127988095Y-91993904D02*
X127988095Y-92641523D01*
X127988095Y-92641523D02*
X128035714Y-92717714D01*
X128035714Y-92717714D02*
X128083333Y-92755809D01*
X128083333Y-92755809D02*
X128178571Y-92793904D01*
X128178571Y-92793904D02*
X128369047Y-92793904D01*
X128369047Y-92793904D02*
X128464285Y-92755809D01*
X128464285Y-92755809D02*
X128511904Y-92717714D01*
X128511904Y-92717714D02*
X128559523Y-92641523D01*
X128559523Y-92641523D02*
X128559523Y-91993904D01*
X129464285Y-91993904D02*
X129273809Y-91993904D01*
X129273809Y-91993904D02*
X129178571Y-92032000D01*
X129178571Y-92032000D02*
X129130952Y-92070095D01*
X129130952Y-92070095D02*
X129035714Y-92184380D01*
X129035714Y-92184380D02*
X128988095Y-92336761D01*
X128988095Y-92336761D02*
X128988095Y-92641523D01*
X128988095Y-92641523D02*
X129035714Y-92717714D01*
X129035714Y-92717714D02*
X129083333Y-92755809D01*
X129083333Y-92755809D02*
X129178571Y-92793904D01*
X129178571Y-92793904D02*
X129369047Y-92793904D01*
X129369047Y-92793904D02*
X129464285Y-92755809D01*
X129464285Y-92755809D02*
X129511904Y-92717714D01*
X129511904Y-92717714D02*
X129559523Y-92641523D01*
X129559523Y-92641523D02*
X129559523Y-92451047D01*
X129559523Y-92451047D02*
X129511904Y-92374857D01*
X129511904Y-92374857D02*
X129464285Y-92336761D01*
X129464285Y-92336761D02*
X129369047Y-92298666D01*
X129369047Y-92298666D02*
X129178571Y-92298666D01*
X129178571Y-92298666D02*
X129083333Y-92336761D01*
X129083333Y-92336761D02*
X129035714Y-92374857D01*
X129035714Y-92374857D02*
X128988095Y-92451047D01*
%TO.C,C5*%
X135199899Y-92835475D02*
X135152280Y-92873570D01*
X135152280Y-92873570D02*
X135009423Y-92911665D01*
X135009423Y-92911665D02*
X134914185Y-92911665D01*
X134914185Y-92911665D02*
X134771328Y-92873570D01*
X134771328Y-92873570D02*
X134676090Y-92797380D01*
X134676090Y-92797380D02*
X134628471Y-92721189D01*
X134628471Y-92721189D02*
X134580852Y-92568808D01*
X134580852Y-92568808D02*
X134580852Y-92454522D01*
X134580852Y-92454522D02*
X134628471Y-92302141D01*
X134628471Y-92302141D02*
X134676090Y-92225951D01*
X134676090Y-92225951D02*
X134771328Y-92149761D01*
X134771328Y-92149761D02*
X134914185Y-92111665D01*
X134914185Y-92111665D02*
X135009423Y-92111665D01*
X135009423Y-92111665D02*
X135152280Y-92149761D01*
X135152280Y-92149761D02*
X135199899Y-92187856D01*
X136104661Y-92111665D02*
X135628471Y-92111665D01*
X135628471Y-92111665D02*
X135580852Y-92492618D01*
X135580852Y-92492618D02*
X135628471Y-92454522D01*
X135628471Y-92454522D02*
X135723709Y-92416427D01*
X135723709Y-92416427D02*
X135961804Y-92416427D01*
X135961804Y-92416427D02*
X136057042Y-92454522D01*
X136057042Y-92454522D02*
X136104661Y-92492618D01*
X136104661Y-92492618D02*
X136152280Y-92568808D01*
X136152280Y-92568808D02*
X136152280Y-92759284D01*
X136152280Y-92759284D02*
X136104661Y-92835475D01*
X136104661Y-92835475D02*
X136057042Y-92873570D01*
X136057042Y-92873570D02*
X135961804Y-92911665D01*
X135961804Y-92911665D02*
X135723709Y-92911665D01*
X135723709Y-92911665D02*
X135628471Y-92873570D01*
X135628471Y-92873570D02*
X135580852Y-92835475D01*
%TO.C,J2*%
X119119236Y-104896433D02*
X119119236Y-105467862D01*
X119119236Y-105467862D02*
X119071617Y-105582148D01*
X119071617Y-105582148D02*
X118976379Y-105658338D01*
X118976379Y-105658338D02*
X118833522Y-105696433D01*
X118833522Y-105696433D02*
X118738284Y-105696433D01*
X119547808Y-104972624D02*
X119595427Y-104934529D01*
X119595427Y-104934529D02*
X119690665Y-104896433D01*
X119690665Y-104896433D02*
X119928760Y-104896433D01*
X119928760Y-104896433D02*
X120023998Y-104934529D01*
X120023998Y-104934529D02*
X120071617Y-104972624D01*
X120071617Y-104972624D02*
X120119236Y-105048814D01*
X120119236Y-105048814D02*
X120119236Y-105125005D01*
X120119236Y-105125005D02*
X120071617Y-105239290D01*
X120071617Y-105239290D02*
X119500189Y-105696433D01*
X119500189Y-105696433D02*
X120119236Y-105696433D01*
%TO.C,C7*%
X132297697Y-107329850D02*
X132335792Y-107377469D01*
X132335792Y-107377469D02*
X132373887Y-107520326D01*
X132373887Y-107520326D02*
X132373887Y-107615564D01*
X132373887Y-107615564D02*
X132335792Y-107758421D01*
X132335792Y-107758421D02*
X132259602Y-107853659D01*
X132259602Y-107853659D02*
X132183411Y-107901278D01*
X132183411Y-107901278D02*
X132031030Y-107948897D01*
X132031030Y-107948897D02*
X131916744Y-107948897D01*
X131916744Y-107948897D02*
X131764363Y-107901278D01*
X131764363Y-107901278D02*
X131688173Y-107853659D01*
X131688173Y-107853659D02*
X131611983Y-107758421D01*
X131611983Y-107758421D02*
X131573887Y-107615564D01*
X131573887Y-107615564D02*
X131573887Y-107520326D01*
X131573887Y-107520326D02*
X131611983Y-107377469D01*
X131611983Y-107377469D02*
X131650078Y-107329850D01*
X131573887Y-106996516D02*
X131573887Y-106329850D01*
X131573887Y-106329850D02*
X132373887Y-106758421D01*
%TO.C,C3*%
X133699623Y-104349814D02*
X133652004Y-104387909D01*
X133652004Y-104387909D02*
X133509147Y-104426004D01*
X133509147Y-104426004D02*
X133413909Y-104426004D01*
X133413909Y-104426004D02*
X133271052Y-104387909D01*
X133271052Y-104387909D02*
X133175814Y-104311719D01*
X133175814Y-104311719D02*
X133128195Y-104235528D01*
X133128195Y-104235528D02*
X133080576Y-104083147D01*
X133080576Y-104083147D02*
X133080576Y-103968861D01*
X133080576Y-103968861D02*
X133128195Y-103816480D01*
X133128195Y-103816480D02*
X133175814Y-103740290D01*
X133175814Y-103740290D02*
X133271052Y-103664100D01*
X133271052Y-103664100D02*
X133413909Y-103626004D01*
X133413909Y-103626004D02*
X133509147Y-103626004D01*
X133509147Y-103626004D02*
X133652004Y-103664100D01*
X133652004Y-103664100D02*
X133699623Y-103702195D01*
X134032957Y-103626004D02*
X134652004Y-103626004D01*
X134652004Y-103626004D02*
X134318671Y-103930766D01*
X134318671Y-103930766D02*
X134461528Y-103930766D01*
X134461528Y-103930766D02*
X134556766Y-103968861D01*
X134556766Y-103968861D02*
X134604385Y-104006957D01*
X134604385Y-104006957D02*
X134652004Y-104083147D01*
X134652004Y-104083147D02*
X134652004Y-104273623D01*
X134652004Y-104273623D02*
X134604385Y-104349814D01*
X134604385Y-104349814D02*
X134556766Y-104387909D01*
X134556766Y-104387909D02*
X134461528Y-104426004D01*
X134461528Y-104426004D02*
X134175814Y-104426004D01*
X134175814Y-104426004D02*
X134080576Y-104387909D01*
X134080576Y-104387909D02*
X134032957Y-104349814D01*
%TO.C,U2*%
X128575000Y-102175000D02*
X128800000Y-102175000D01*
X128575000Y-102175000D02*
X128575000Y-98825000D01*
X128800000Y-102175000D02*
X128800000Y-103400000D01*
X131925000Y-102175000D02*
X131625000Y-102175000D01*
X131925000Y-102175000D02*
X131925000Y-98825000D01*
X128575000Y-98825000D02*
X128875000Y-98825000D01*
X131925000Y-98825000D02*
X131625000Y-98825000D01*
D12*
%TO.C,C4*%
X136309420Y-102590000D02*
X136590580Y-102590000D01*
X136309420Y-103610000D02*
X136590580Y-103610000D01*
%TO.C,J1*%
X139980000Y-92380000D02*
X141250000Y-92380000D01*
X139980000Y-93650000D02*
X139980000Y-92380000D01*
X142292929Y-95810000D02*
X142690000Y-95810000D01*
X142292929Y-96570000D02*
X142690000Y-96570000D01*
X142292929Y-98350000D02*
X142690000Y-98350000D01*
X142292929Y-99110000D02*
X142690000Y-99110000D01*
X142292929Y-100890000D02*
X142690000Y-100890000D01*
X142292929Y-101650000D02*
X142690000Y-101650000D01*
X142292929Y-103430000D02*
X142690000Y-103430000D01*
X142292929Y-104190000D02*
X142690000Y-104190000D01*
X142292929Y-105970000D02*
X142690000Y-105970000D01*
X142292929Y-106730000D02*
X142690000Y-106730000D01*
X142360000Y-93270000D02*
X142690000Y-93270000D01*
X142360000Y-94030000D02*
X142690000Y-94030000D01*
X142690000Y-92320000D02*
X142690000Y-107680000D01*
X142690000Y-94920000D02*
X145350000Y-94920000D01*
X142690000Y-97460000D02*
X145350000Y-97460000D01*
X142690000Y-100000000D02*
X145350000Y-100000000D01*
X142690000Y-102540000D02*
X145350000Y-102540000D01*
X142690000Y-105080000D02*
X145350000Y-105080000D01*
X142690000Y-107680000D02*
X145350000Y-107680000D01*
X145350000Y-92320000D02*
X142690000Y-92320000D01*
X145350000Y-93270000D02*
X151350000Y-93270000D01*
X145350000Y-93330000D02*
X151350000Y-93330000D01*
X145350000Y-93450000D02*
X151350000Y-93450000D01*
X145350000Y-93570000D02*
X151350000Y-93570000D01*
X145350000Y-93690000D02*
X151350000Y-93690000D01*
X145350000Y-93810000D02*
X151350000Y-93810000D01*
X145350000Y-93930000D02*
X151350000Y-93930000D01*
X145350000Y-95810000D02*
X151350000Y-95810000D01*
X145350000Y-98350000D02*
X151350000Y-98350000D01*
X145350000Y-100890000D02*
X151350000Y-100890000D01*
X145350000Y-103430000D02*
X151350000Y-103430000D01*
X145350000Y-105970000D02*
X151350000Y-105970000D01*
X145350000Y-107680000D02*
X145350000Y-92320000D01*
X151350000Y-93270000D02*
X151350000Y-94030000D01*
X151350000Y-94030000D02*
X145350000Y-94030000D01*
X151350000Y-95810000D02*
X151350000Y-96570000D01*
X151350000Y-96570000D02*
X145350000Y-96570000D01*
X151350000Y-98350000D02*
X151350000Y-99110000D01*
X151350000Y-99110000D02*
X145350000Y-99110000D01*
X151350000Y-100890000D02*
X151350000Y-101650000D01*
X151350000Y-101650000D02*
X145350000Y-101650000D01*
X151350000Y-103430000D02*
X151350000Y-104190000D01*
X151350000Y-104190000D02*
X145350000Y-104190000D01*
X151350000Y-105970000D02*
X151350000Y-106730000D01*
X151350000Y-106730000D02*
X145350000Y-106730000D01*
%TO.C,R3*%
X132727500Y-99737258D02*
X132727500Y-99262742D01*
X133772500Y-99737258D02*
X133772500Y-99262742D01*
%TO.C,U3*%
X136950000Y-99090000D02*
X135550000Y-99090000D01*
X135550000Y-101410000D02*
X137450000Y-101410000D01*
%TO.C,U4*%
X122940000Y-104250000D02*
X122940000Y-107700000D01*
X122940000Y-104250000D02*
X122940000Y-102300000D01*
X128060000Y-104250000D02*
X128060000Y-106200000D01*
X128060000Y-104250000D02*
X128060000Y-102300000D01*
%TO.C,C8*%
X121140580Y-107760000D02*
X120859420Y-107760000D01*
X121140580Y-106740000D02*
X120859420Y-106740000D01*
%TO.C,R2*%
X133477500Y-96237258D02*
X133477500Y-95762742D01*
X134522500Y-96237258D02*
X134522500Y-95762742D01*
%TO.C,R1*%
X136477500Y-97237258D02*
X136477500Y-96762742D01*
X137522500Y-97237258D02*
X137522500Y-96762742D01*
%TO.C,C2*%
X129609420Y-104490000D02*
X129890580Y-104490000D01*
X129609420Y-105510000D02*
X129890580Y-105510000D01*
%TO.C,C6*%
X124538748Y-97340000D02*
X125961252Y-97340000D01*
X124538748Y-99160000D02*
X125961252Y-99160000D01*
%TO.C,C1*%
X131109420Y-95490000D02*
X131390580Y-95490000D01*
X131109420Y-96510000D02*
X131390580Y-96510000D01*
%TO.C,U1*%
X137660000Y-106700000D02*
X137660000Y-105300000D01*
X135340000Y-105300000D02*
X135340000Y-107200000D01*
%TO.C,U6*%
X127500000Y-96380000D02*
X126360000Y-96380000D01*
X126360000Y-96610000D02*
X126360000Y-96380000D01*
X126360000Y-96610000D02*
X123640000Y-96610000D01*
X126360000Y-91890000D02*
X126360000Y-92120000D01*
X123640000Y-96610000D02*
X123640000Y-95300000D01*
X123640000Y-93200000D02*
X123640000Y-91890000D01*
X123640000Y-91890000D02*
X126360000Y-91890000D01*
%TO.C,C5*%
X137760000Y-93359420D02*
X137760000Y-93640580D01*
X136740000Y-93359420D02*
X136740000Y-93640580D01*
%TO.C,J2*%
X121580000Y-101890000D02*
X121580000Y-91670000D01*
X121580000Y-101890000D02*
X118920000Y-101890000D01*
X121580000Y-91670000D02*
X118920000Y-91670000D01*
X120250000Y-104490000D02*
X118920000Y-104490000D01*
X118920000Y-104490000D02*
X118920000Y-103160000D01*
X118920000Y-101890000D02*
X118920000Y-91670000D01*
%TO.C,C7*%
X129609420Y-106740000D02*
X129890580Y-106740000D01*
X129609420Y-107760000D02*
X129890580Y-107760000D01*
%TO.C,C3*%
X134010000Y-105859420D02*
X134010000Y-106140580D01*
X132990000Y-105859420D02*
X132990000Y-106140580D01*
%TD*%
M02*
