%TF.GenerationSoftware,KiCad,Pcbnew,(7.0.0)*%
%TF.CreationDate,2023-08-01T12:49:58+01:00*%
%TF.ProjectId,TAStable,54415374-6162-46c6-952e-6b696361645f,rev?*%
%TF.SameCoordinates,Original*%
%TF.FileFunction,Copper,L1,Top*%
%TF.FilePolarity,Positive*%
%FSLAX46Y46*%
G04 Gerber Fmt 4.6, Leading zero omitted, Abs format (unit mm)*
G04 Created by KiCad (PCBNEW (7.0.0)) date 2023-08-01 12:49:58*
%MOMM*%
%LPD*%
G01*
G04 APERTURE LIST*
G04 Aperture macros list*
%AMRoundRect*
0 Rectangle with rounded corners*
0 $1 Rounding radius*
0 $2 $3 $4 $5 $6 $7 $8 $9 X,Y pos of 4 corners*
0 Add a 4 corners polygon primitive as box body*
4,1,4,$2,$3,$4,$5,$6,$7,$8,$9,$2,$3,0*
0 Add four circle primitives for the rounded corners*
1,1,$1+$1,$2,$3*
1,1,$1+$1,$4,$5*
1,1,$1+$1,$6,$7*
1,1,$1+$1,$8,$9*
0 Add four rect primitives between the rounded corners*
20,1,$1+$1,$2,$3,$4,$5,0*
20,1,$1+$1,$4,$5,$6,$7,0*
20,1,$1+$1,$6,$7,$8,$9,0*
20,1,$1+$1,$8,$9,$2,$3,0*%
%AMFreePoly0*
4,1,9,3.862500,-0.866500,0.737500,-0.866500,0.737500,-0.450000,-0.737500,-0.450000,-0.737500,0.450000,0.737500,0.450000,0.737500,0.866500,3.862500,0.866500,3.862500,-0.866500,3.862500,-0.866500,$1*%
G04 Aperture macros list end*
%TA.AperFunction,SMDPad,CuDef*%
%ADD10R,0.300000X1.400000*%
%TD*%
%TA.AperFunction,SMDPad,CuDef*%
%ADD11RoundRect,0.225000X-0.225000X-0.250000X0.225000X-0.250000X0.225000X0.250000X-0.225000X0.250000X0*%
%TD*%
%TA.AperFunction,ComponentPad*%
%ADD12R,1.700000X1.700000*%
%TD*%
%TA.AperFunction,ComponentPad*%
%ADD13O,1.700000X1.700000*%
%TD*%
%TA.AperFunction,SMDPad,CuDef*%
%ADD14RoundRect,0.200000X0.275000X-0.200000X0.275000X0.200000X-0.275000X0.200000X-0.275000X-0.200000X0*%
%TD*%
%TA.AperFunction,SMDPad,CuDef*%
%ADD15R,0.650000X0.400000*%
%TD*%
%TA.AperFunction,SMDPad,CuDef*%
%ADD16RoundRect,0.150000X0.150000X-0.825000X0.150000X0.825000X-0.150000X0.825000X-0.150000X-0.825000X0*%
%TD*%
%TA.AperFunction,SMDPad,CuDef*%
%ADD17RoundRect,0.225000X0.225000X0.250000X-0.225000X0.250000X-0.225000X-0.250000X0.225000X-0.250000X0*%
%TD*%
%TA.AperFunction,SMDPad,CuDef*%
%ADD18RoundRect,0.250000X-0.325000X-0.650000X0.325000X-0.650000X0.325000X0.650000X-0.325000X0.650000X0*%
%TD*%
%TA.AperFunction,SMDPad,CuDef*%
%ADD19R,0.400000X0.650000*%
%TD*%
%TA.AperFunction,SMDPad,CuDef*%
%ADD20R,1.300000X0.900000*%
%TD*%
%TA.AperFunction,SMDPad,CuDef*%
%ADD21FreePoly0,180.000000*%
%TD*%
%TA.AperFunction,SMDPad,CuDef*%
%ADD22RoundRect,0.225000X-0.250000X0.225000X-0.250000X-0.225000X0.250000X-0.225000X0.250000X0.225000X0*%
%TD*%
%TA.AperFunction,ViaPad*%
%ADD23C,0.600000*%
%TD*%
%TA.AperFunction,ViaPad*%
%ADD24C,0.800000*%
%TD*%
%TA.AperFunction,Conductor*%
%ADD25C,0.250000*%
%TD*%
%TA.AperFunction,Conductor*%
%ADD26C,0.500000*%
%TD*%
%TA.AperFunction,Conductor*%
%ADD27C,0.254000*%
%TD*%
%TA.AperFunction,Conductor*%
%ADD28C,0.508000*%
%TD*%
G04 APERTURE END LIST*
D10*
%TO.P,U2,1,VD*%
%TO.N,+3.3V*%
X129249999Y-102699999D03*
%TO.P,U2,2,GND*%
%TO.N,GND*%
X129749999Y-102699999D03*
%TO.P,U2,3,CLK_OUT*%
%TO.N,Net-(U2-CLK_OUT)*%
X130249999Y-102699999D03*
%TO.P,U2,4,AUX_OUT*%
%TO.N,unconnected-(U2-AUX_OUT-Pad4)*%
X130749999Y-102699999D03*
%TO.P,U2,5,CLK_IN*%
%TO.N,Net-(U2-CLK_IN)*%
X131249999Y-102699999D03*
%TO.P,U2,6,XTO*%
%TO.N,Net-(U2-XTO)*%
X131249999Y-98299999D03*
%TO.P,U2,7,XTI/REF_CLK*%
%TO.N,GND*%
X130749999Y-98299999D03*
%TO.P,U2,8,AD0/~{CS}*%
%TO.N,Net-(U2-AD0{slash}~{CS})*%
X130249999Y-98299999D03*
%TO.P,U2,9,SCL/CCLK*%
%TO.N,/I2C_SCL*%
X129749999Y-98299999D03*
%TO.P,U2,10,SDA/CDIN*%
%TO.N,/I2C_SDA*%
X129249999Y-98299999D03*
%TD*%
D11*
%TO.P,C4,1*%
%TO.N,+3.3V*%
X135675000Y-103100000D03*
%TO.P,C4,2*%
%TO.N,GND*%
X137225000Y-103100000D03*
%TD*%
D12*
%TO.P,J1,1,Pin_1*%
%TO.N,+5V*%
X141249999Y-93649999D03*
D13*
%TO.P,J1,2,Pin_2*%
%TO.N,GND*%
X141249999Y-96189999D03*
%TO.P,J1,3,Pin_3*%
%TO.N,/I2C_SDA*%
X141249999Y-98729999D03*
%TO.P,J1,4,Pin_4*%
%TO.N,/I2C_SCL*%
X141249999Y-101269999D03*
%TO.P,J1,5,Pin_5*%
%TO.N,/21MHz_IN*%
X141249999Y-103809999D03*
%TO.P,J1,6,Pin_6*%
%TO.N,Net-(J1-Pin_6)*%
X141249999Y-106349999D03*
%TD*%
D14*
%TO.P,R3,1*%
%TO.N,+3.3V*%
X133250000Y-100325000D03*
%TO.P,R3,2*%
%TO.N,Net-(U2-AD0{slash}~{CS})*%
X133250000Y-98675000D03*
%TD*%
D15*
%TO.P,U3,1*%
%TO.N,N/C*%
X137199999Y-100899999D03*
%TO.P,U3,2*%
%TO.N,/21MHz_IN*%
X137199999Y-100249999D03*
%TO.P,U3,3,GND*%
%TO.N,GND*%
X137199999Y-99599999D03*
%TO.P,U3,4*%
%TO.N,Net-(U2-CLK_IN)*%
X135299999Y-99599999D03*
%TO.P,U3,5,VCC*%
%TO.N,+3.3V*%
X135299999Y-100899999D03*
%TD*%
D16*
%TO.P,U4,1,VDD*%
%TO.N,+3.3V*%
X123595000Y-106725000D03*
%TO.P,U4,2,RA5*%
%TO.N,unconnected-(U4-RA5-Pad2)*%
X124865000Y-106725000D03*
%TO.P,U4,3,RA4*%
%TO.N,unconnected-(U4-RA4-Pad3)*%
X126135000Y-106725000D03*
%TO.P,U4,4,RA3*%
%TO.N,/MCLR*%
X127405000Y-106725000D03*
%TO.P,U4,5,RA2*%
%TO.N,/I2C_SDA*%
X127405000Y-101775000D03*
%TO.P,U4,6,RA1*%
%TO.N,/I2C_SCL*%
X126135000Y-101775000D03*
%TO.P,U4,7,RA0*%
%TO.N,/ICSPDAT*%
X124865000Y-101775000D03*
%TO.P,U4,8,VSS*%
%TO.N,GND*%
X123595000Y-101775000D03*
%TD*%
D17*
%TO.P,C8,1*%
%TO.N,+3.3V*%
X121775000Y-107250000D03*
%TO.P,C8,2*%
%TO.N,GND*%
X120225000Y-107250000D03*
%TD*%
D14*
%TO.P,R2,1*%
%TO.N,+3.3V*%
X134000000Y-96825000D03*
%TO.P,R2,2*%
%TO.N,/I2C_SCL*%
X134000000Y-95175000D03*
%TD*%
%TO.P,R1,1*%
%TO.N,+3.3V*%
X137000000Y-97825000D03*
%TO.P,R1,2*%
%TO.N,/I2C_SDA*%
X137000000Y-96175000D03*
%TD*%
D11*
%TO.P,C2,1*%
%TO.N,+3.3V*%
X128975000Y-105000000D03*
%TO.P,C2,2*%
%TO.N,GND*%
X130525000Y-105000000D03*
%TD*%
D18*
%TO.P,C6,1*%
%TO.N,+3.3V*%
X123775000Y-98250000D03*
%TO.P,C6,2*%
%TO.N,GND*%
X126725000Y-98250000D03*
%TD*%
D11*
%TO.P,C1,1*%
%TO.N,GND*%
X130475000Y-96000000D03*
%TO.P,C1,2*%
%TO.N,Net-(U2-XTO)*%
X132025000Y-96000000D03*
%TD*%
D19*
%TO.P,U1,1*%
%TO.N,N/C*%
X135849999Y-106949999D03*
%TO.P,U1,2*%
%TO.N,Net-(U2-CLK_OUT)*%
X136499999Y-106949999D03*
%TO.P,U1,3,GND*%
%TO.N,GND*%
X137149999Y-106949999D03*
%TO.P,U1,4*%
%TO.N,Net-(J1-Pin_6)*%
X137149999Y-105049999D03*
%TO.P,U1,5,VCC*%
%TO.N,+3.3V*%
X135849999Y-105049999D03*
%TD*%
D20*
%TO.P,U6,1,GND*%
%TO.N,GND*%
X126949999Y-95749999D03*
D21*
%TO.P,U6,2,VO*%
%TO.N,+3.3V*%
X126862500Y-94250000D03*
D20*
%TO.P,U6,3,VI*%
%TO.N,+5V*%
X126949999Y-92749999D03*
%TD*%
D22*
%TO.P,C5,1*%
%TO.N,+5V*%
X137250000Y-92725000D03*
%TO.P,C5,2*%
%TO.N,GND*%
X137250000Y-94275000D03*
%TD*%
D12*
%TO.P,J2,1,Pin_1*%
%TO.N,/MCLR*%
X120249999Y-103159999D03*
D13*
%TO.P,J2,2,Pin_2*%
%TO.N,+3.3V*%
X120249999Y-100619999D03*
%TO.P,J2,3,Pin_3*%
%TO.N,GND*%
X120249999Y-98079999D03*
%TO.P,J2,4,Pin_4*%
%TO.N,/ICSPDAT*%
X120249999Y-95539999D03*
%TO.P,J2,5,Pin_5*%
%TO.N,/I2C_SCL*%
X120249999Y-92999999D03*
%TD*%
D11*
%TO.P,C7,1*%
%TO.N,+3.3V*%
X128975000Y-107250000D03*
%TO.P,C7,2*%
%TO.N,GND*%
X130525000Y-107250000D03*
%TD*%
D22*
%TO.P,C3,1*%
%TO.N,+3.3V*%
X133500000Y-105225000D03*
%TO.P,C3,2*%
%TO.N,GND*%
X133500000Y-106775000D03*
%TD*%
D23*
%TO.N,GND*%
X131250000Y-94750000D03*
X132000000Y-105000000D03*
D24*
X128133942Y-98133544D03*
D23*
X138250000Y-107750000D03*
X128750000Y-93750000D03*
X132000000Y-107250000D03*
D24*
X125250000Y-96500000D03*
X122000000Y-104000000D03*
D23*
X122250000Y-92750000D03*
D24*
X120500000Y-105750000D03*
D23*
X138220911Y-102529089D03*
%TO.N,/I2C_SCL*%
X130250000Y-94500000D03*
D24*
%TO.N,/MCLR*%
X127500000Y-105000000D03*
D23*
%TO.N,/ICSPDAT*%
X126500000Y-100000000D03*
%TD*%
D25*
%TO.N,GND*%
X137150000Y-107650000D02*
X137250000Y-107750000D01*
X137150000Y-106950000D02*
X137150000Y-107650000D01*
D26*
%TO.N,+3.3V*%
X122380000Y-100620000D02*
X122500000Y-100500000D01*
X120250000Y-100620000D02*
X122380000Y-100620000D01*
X122500000Y-98750000D02*
X122500000Y-100500000D01*
X122500000Y-100500000D02*
X122500000Y-103000000D01*
X123000000Y-98250000D02*
X122500000Y-98750000D01*
X123775000Y-98250000D02*
X123000000Y-98250000D01*
X122500000Y-103000000D02*
X123595000Y-104095000D01*
D25*
%TO.N,/I2C_SCL*%
X138500000Y-99221250D02*
X140548750Y-101270000D01*
X135825000Y-97000000D02*
X137750000Y-97000000D01*
X140548750Y-101270000D02*
X141250000Y-101270000D01*
X132825000Y-94000000D02*
X135825000Y-97000000D01*
X138500000Y-97750000D02*
X138500000Y-99221250D01*
X130750000Y-94000000D02*
X132825000Y-94000000D01*
X130250000Y-94500000D02*
X130750000Y-94000000D01*
X137750000Y-97000000D02*
X138500000Y-97750000D01*
D27*
%TO.N,+3.3V*%
X134500000Y-99000000D02*
X133250000Y-100250000D01*
D26*
X128975000Y-106000000D02*
X129050000Y-106075000D01*
X134000000Y-96825000D02*
X135000000Y-97825000D01*
X124500000Y-94250000D02*
X123775000Y-94975000D01*
X126862500Y-94250000D02*
X124500000Y-94250000D01*
D27*
X135996000Y-99246000D02*
X135750000Y-99000000D01*
D25*
X132575000Y-101000000D02*
X129750000Y-101000000D01*
D26*
X128975000Y-105000000D02*
X128975000Y-105500000D01*
X133450000Y-105050000D02*
X135850000Y-105050000D01*
X123070000Y-107250000D02*
X123595000Y-106725000D01*
X123595000Y-104095000D02*
X123690000Y-104000000D01*
D25*
X129750000Y-101000000D02*
X129250000Y-101500000D01*
X129250000Y-101500000D02*
X129250000Y-105225000D01*
D26*
X121775000Y-107250000D02*
X123070000Y-107250000D01*
D27*
X135996000Y-102779000D02*
X135996000Y-99246000D01*
X135675000Y-103100000D02*
X135300000Y-102725000D01*
X135000000Y-99000000D02*
X135000000Y-97825000D01*
X133250000Y-100250000D02*
X133250000Y-100325000D01*
D26*
X123595000Y-104095000D02*
X123595000Y-104905000D01*
X132425000Y-106075000D02*
X133450000Y-105050000D01*
D27*
X135675000Y-103100000D02*
X135996000Y-102779000D01*
X135300000Y-102725000D02*
X135300000Y-100900000D01*
X135000000Y-99000000D02*
X134500000Y-99000000D01*
D25*
X133250000Y-100325000D02*
X132575000Y-101000000D01*
D26*
X128975000Y-107250000D02*
X128975000Y-106000000D01*
D25*
X129250000Y-105225000D02*
X128975000Y-105500000D01*
D26*
X128975000Y-106000000D02*
X128975000Y-105500000D01*
X135000000Y-97825000D02*
X137000000Y-97825000D01*
X123775000Y-94975000D02*
X123775000Y-98250000D01*
X129050000Y-106075000D02*
X132425000Y-106075000D01*
X127975000Y-104000000D02*
X128975000Y-105000000D01*
X123595000Y-106725000D02*
X123595000Y-104905000D01*
X123690000Y-104000000D02*
X127975000Y-104000000D01*
D27*
X135750000Y-99000000D02*
X135000000Y-99000000D01*
%TO.N,GND*%
X137650000Y-103100000D02*
X137225000Y-103100000D01*
X138220911Y-102529089D02*
X137650000Y-103100000D01*
D28*
X141277500Y-96190000D02*
X140967500Y-96500000D01*
X142717500Y-96500000D02*
X141717500Y-96500000D01*
D25*
X132000000Y-105000000D02*
X130525000Y-105000000D01*
D27*
X137225000Y-102475000D02*
X137225000Y-103100000D01*
D25*
X129750000Y-102700000D02*
X129750000Y-104225000D01*
D28*
X141342500Y-96190000D02*
X141342500Y-96125000D01*
D27*
X137200000Y-99600000D02*
X136671000Y-99600000D01*
X130750000Y-96525000D02*
X130750000Y-98300000D01*
X131250000Y-94750000D02*
X130475000Y-95525000D01*
D28*
X140967500Y-95750000D02*
X139967500Y-95750000D01*
D27*
X136450000Y-101700000D02*
X137225000Y-102475000D01*
D28*
X141342500Y-96125000D02*
X140967500Y-95750000D01*
X140967500Y-96500000D02*
X139967500Y-96500000D01*
D25*
X129750000Y-104225000D02*
X130525000Y-105000000D01*
D27*
X136671000Y-99600000D02*
X136450000Y-99821000D01*
D28*
X142717500Y-95750000D02*
X141717500Y-95750000D01*
D27*
X130475000Y-95525000D02*
X130475000Y-96250000D01*
D28*
X141342500Y-96190000D02*
X141277500Y-96190000D01*
D27*
X130475000Y-96250000D02*
X130750000Y-96525000D01*
X136450000Y-99821000D02*
X136450000Y-101700000D01*
%TO.N,Net-(U2-CLK_OUT)*%
X130250000Y-102700000D02*
X130250000Y-103704000D01*
X136050000Y-104050000D02*
X136500000Y-104500000D01*
X130596000Y-104050000D02*
X136050000Y-104050000D01*
X130250000Y-103704000D02*
X130596000Y-104050000D01*
X136500000Y-104500000D02*
X136500000Y-106950000D01*
%TO.N,Net-(U2-CLK_IN)*%
X134500000Y-100400000D02*
X134500000Y-101950000D01*
X133750000Y-102700000D02*
X131250000Y-102700000D01*
X134500000Y-101950000D02*
X133750000Y-102700000D01*
X135300000Y-99600000D02*
X134500000Y-100400000D01*
%TO.N,Net-(U2-XTO)*%
X132025000Y-96725000D02*
X131250000Y-97500000D01*
X131250000Y-97500000D02*
X131250000Y-98300000D01*
X132025000Y-96250000D02*
X132025000Y-96725000D01*
%TO.N,Net-(U2-AD0{slash}~{CS})*%
X130250000Y-99500000D02*
X130250000Y-98300000D01*
X130500000Y-99750000D02*
X130250000Y-99500000D01*
X132175000Y-99750000D02*
X130500000Y-99750000D01*
X133250000Y-98675000D02*
X132175000Y-99750000D01*
D25*
%TO.N,/I2C_SDA*%
X140005000Y-98350000D02*
X140375000Y-98720000D01*
D27*
X130250000Y-93500000D02*
X134500000Y-93500000D01*
X127405000Y-100470000D02*
X127875000Y-100000000D01*
X127405000Y-101775000D02*
X127405000Y-100470000D01*
X129000000Y-96750000D02*
X129000000Y-94750000D01*
X127875000Y-100000000D02*
X128500000Y-100000000D01*
X129250000Y-97000000D02*
X129000000Y-96750000D01*
X129000000Y-94750000D02*
X130250000Y-93500000D01*
X129250000Y-99250000D02*
X129250000Y-97000000D01*
X134500000Y-93500000D02*
X137250000Y-96250000D01*
X140375000Y-98730000D02*
X137820000Y-96175000D01*
X137820000Y-96175000D02*
X137000000Y-96175000D01*
X128500000Y-100000000D02*
X129250000Y-99250000D01*
%TO.N,/21MHz_IN*%
X137750000Y-100250000D02*
X137200000Y-100250000D01*
D25*
X138500000Y-101925000D02*
X138500000Y-100750000D01*
X138000000Y-100250000D02*
X137750000Y-100250000D01*
X138500000Y-100750000D02*
X138000000Y-100250000D01*
X140375000Y-103800000D02*
X138500000Y-101925000D01*
%TO.N,/I2C_SCL*%
X129750000Y-98300000D02*
X129750000Y-99875000D01*
X128000000Y-103250000D02*
X126500000Y-103250000D01*
X130250000Y-94500000D02*
X129500000Y-95250000D01*
X129500000Y-95250000D02*
X129500000Y-96500000D01*
X126135000Y-102885000D02*
X126135000Y-101775000D01*
X128396838Y-101228162D02*
X128396838Y-102853162D01*
X128396838Y-102853162D02*
X128000000Y-103250000D01*
X129500000Y-96500000D02*
X129750000Y-96750000D01*
X126500000Y-103250000D02*
X126135000Y-102885000D01*
X129750000Y-99875000D02*
X128396838Y-101228162D01*
X129750000Y-96750000D02*
X129750000Y-98300000D01*
D27*
%TO.N,Net-(J1-Pin_6)*%
X139890000Y-106340000D02*
X140375000Y-106340000D01*
D25*
X137150000Y-105050000D02*
X137550000Y-105050000D01*
X137550000Y-105050000D02*
X138850000Y-106350000D01*
X138850000Y-106350000D02*
X140375000Y-106350000D01*
D26*
%TO.N,+5V*%
X137225000Y-92750000D02*
X126950000Y-92750000D01*
X139460000Y-92725000D02*
X140375000Y-93640000D01*
X137250000Y-92725000D02*
X137225000Y-92750000D01*
X137250000Y-92725000D02*
X139460000Y-92725000D01*
D25*
%TO.N,/MCLR*%
X127405000Y-106725000D02*
X127405000Y-105095000D01*
X127405000Y-105095000D02*
X127500000Y-105000000D01*
D27*
%TO.N,/ICSPDAT*%
X124865000Y-100885000D02*
X124865000Y-101775000D01*
X125750000Y-100000000D02*
X124865000Y-100885000D01*
X126500000Y-100000000D02*
X125750000Y-100000000D01*
%TD*%
%TA.AperFunction,Conductor*%
%TO.N,GND*%
G36*
X145187500Y-91767113D02*
G01*
X145232887Y-91812500D01*
X145249500Y-91874500D01*
X145249500Y-108125500D01*
X145232887Y-108187500D01*
X145187500Y-108232887D01*
X145125500Y-108249500D01*
X131325167Y-108249500D01*
X131268872Y-108235985D01*
X131224849Y-108198385D01*
X131202694Y-108144898D01*
X131207236Y-108087182D01*
X131237486Y-108037819D01*
X131317462Y-107957842D01*
X131326367Y-107946580D01*
X131407753Y-107814633D01*
X131413819Y-107801625D01*
X131462727Y-107654030D01*
X131465543Y-107640874D01*
X131474680Y-107551444D01*
X131475000Y-107545168D01*
X131475000Y-107516326D01*
X131471549Y-107503450D01*
X131458674Y-107500000D01*
X130399000Y-107500000D01*
X130337000Y-107483387D01*
X130291613Y-107438000D01*
X130275000Y-107376000D01*
X130275000Y-107124000D01*
X130291613Y-107062000D01*
X130337000Y-107016613D01*
X130399000Y-107000000D01*
X131458673Y-107000000D01*
X131471548Y-106996549D01*
X131474999Y-106983674D01*
X131474999Y-106951686D01*
X131475963Y-106951686D01*
X131489466Y-106891167D01*
X131535081Y-106843177D01*
X131598888Y-106825500D01*
X132361293Y-106825500D01*
X132379264Y-106826809D01*
X132385111Y-106827665D01*
X132403023Y-106830289D01*
X132406317Y-106830000D01*
X132465066Y-106847275D01*
X132508981Y-106892484D01*
X132525000Y-106953442D01*
X132525000Y-107045164D01*
X132525321Y-107051447D01*
X132534455Y-107140867D01*
X132537274Y-107154036D01*
X132586180Y-107301625D01*
X132592246Y-107314633D01*
X132673632Y-107446580D01*
X132682537Y-107457842D01*
X132792157Y-107567462D01*
X132803419Y-107576367D01*
X132935366Y-107657753D01*
X132948374Y-107663819D01*
X133095969Y-107712727D01*
X133109125Y-107715543D01*
X133198555Y-107724680D01*
X133204832Y-107725000D01*
X133233674Y-107725000D01*
X133246549Y-107721549D01*
X133250000Y-107708674D01*
X133250000Y-107708673D01*
X133750000Y-107708673D01*
X133753450Y-107721548D01*
X133766326Y-107724999D01*
X133795165Y-107724999D01*
X133801447Y-107724678D01*
X133890867Y-107715544D01*
X133904036Y-107712725D01*
X134051625Y-107663819D01*
X134064633Y-107657753D01*
X134196580Y-107576367D01*
X134207842Y-107567462D01*
X134317462Y-107457842D01*
X134326367Y-107446580D01*
X134407753Y-107314633D01*
X134413819Y-107301625D01*
X134462727Y-107154030D01*
X134465543Y-107140874D01*
X134474680Y-107051444D01*
X134475000Y-107045168D01*
X134475000Y-107041326D01*
X134471549Y-107028450D01*
X134458674Y-107025000D01*
X133766326Y-107025000D01*
X133753450Y-107028450D01*
X133750000Y-107041326D01*
X133750000Y-107708673D01*
X133250000Y-107708673D01*
X133250000Y-106649000D01*
X133266613Y-106587000D01*
X133312000Y-106541613D01*
X133374000Y-106525000D01*
X134458673Y-106525000D01*
X134471548Y-106521549D01*
X134474999Y-106508674D01*
X134474999Y-106504835D01*
X134474678Y-106498552D01*
X134465544Y-106409132D01*
X134462725Y-106395963D01*
X134413819Y-106248374D01*
X134407753Y-106235366D01*
X134326367Y-106103419D01*
X134317462Y-106092157D01*
X134313339Y-106088034D01*
X134281244Y-106032442D01*
X134281247Y-105968251D01*
X134313346Y-105912665D01*
X134322968Y-105903044D01*
X134349886Y-105859402D01*
X134394993Y-105816223D01*
X134455425Y-105800500D01*
X135345147Y-105800500D01*
X135402930Y-105815248D01*
X135407669Y-105818796D01*
X135415975Y-105821893D01*
X135415977Y-105821895D01*
X135455809Y-105836751D01*
X135542517Y-105869091D01*
X135602127Y-105875500D01*
X135748500Y-105875499D01*
X135810500Y-105892112D01*
X135855887Y-105937499D01*
X135872500Y-105999499D01*
X135872500Y-106000500D01*
X135855887Y-106062500D01*
X135810500Y-106107887D01*
X135748501Y-106124500D01*
X135605439Y-106124500D01*
X135605420Y-106124500D01*
X135602128Y-106124501D01*
X135598850Y-106124853D01*
X135598838Y-106124854D01*
X135550231Y-106130079D01*
X135550225Y-106130080D01*
X135542517Y-106130909D01*
X135535252Y-106133618D01*
X135535246Y-106133620D01*
X135415980Y-106178104D01*
X135415978Y-106178104D01*
X135407669Y-106181204D01*
X135400572Y-106186516D01*
X135400568Y-106186519D01*
X135299550Y-106262141D01*
X135299546Y-106262144D01*
X135292454Y-106267454D01*
X135287144Y-106274546D01*
X135287141Y-106274550D01*
X135211519Y-106375568D01*
X135211516Y-106375572D01*
X135206204Y-106382669D01*
X135203104Y-106390978D01*
X135203104Y-106390980D01*
X135158620Y-106510247D01*
X135158619Y-106510250D01*
X135155909Y-106517517D01*
X135155079Y-106525227D01*
X135155079Y-106525232D01*
X135149855Y-106573819D01*
X135149854Y-106573831D01*
X135149500Y-106577127D01*
X135149500Y-106580448D01*
X135149500Y-106580449D01*
X135149500Y-107319560D01*
X135149500Y-107319578D01*
X135149501Y-107322872D01*
X135149853Y-107326150D01*
X135149854Y-107326161D01*
X135155079Y-107374768D01*
X135155080Y-107374773D01*
X135155909Y-107382483D01*
X135158619Y-107389749D01*
X135158620Y-107389753D01*
X135184016Y-107457842D01*
X135206204Y-107517331D01*
X135211518Y-107524430D01*
X135211519Y-107524431D01*
X135284269Y-107621613D01*
X135292454Y-107632546D01*
X135407669Y-107718796D01*
X135542517Y-107769091D01*
X135602127Y-107775500D01*
X136097872Y-107775499D01*
X136157483Y-107769091D01*
X136157655Y-107770698D01*
X136192344Y-107770697D01*
X136192517Y-107769091D01*
X136252127Y-107775500D01*
X136747872Y-107775499D01*
X136807483Y-107769091D01*
X136807628Y-107770440D01*
X136842425Y-107770440D01*
X136842624Y-107768598D01*
X136898885Y-107774646D01*
X136905482Y-107775000D01*
X136933674Y-107775000D01*
X136946550Y-107771549D01*
X136954183Y-107743063D01*
X136971267Y-107705653D01*
X136999647Y-107675889D01*
X137057546Y-107632546D01*
X137126733Y-107540123D01*
X137174489Y-107501640D01*
X137234846Y-107490751D01*
X137293040Y-107510120D01*
X137334832Y-107555008D01*
X137350000Y-107614435D01*
X137350000Y-107758674D01*
X137353450Y-107771549D01*
X137366326Y-107775000D01*
X137394518Y-107775000D01*
X137401114Y-107774646D01*
X137449667Y-107769426D01*
X137464641Y-107765888D01*
X137583777Y-107721452D01*
X137599189Y-107713037D01*
X137700092Y-107637501D01*
X137712501Y-107625092D01*
X137788037Y-107524189D01*
X137796452Y-107508777D01*
X137840888Y-107389641D01*
X137844426Y-107374667D01*
X137849646Y-107326114D01*
X137850000Y-107319518D01*
X137850000Y-107166326D01*
X137846549Y-107153450D01*
X137833674Y-107150000D01*
X137366323Y-107150000D01*
X137356588Y-107152608D01*
X137300305Y-107154449D01*
X137249011Y-107131206D01*
X137213286Y-107087675D01*
X137200499Y-107032834D01*
X137200499Y-106873998D01*
X137217112Y-106812000D01*
X137262499Y-106766613D01*
X137324499Y-106750000D01*
X137833674Y-106750000D01*
X137846549Y-106746549D01*
X137850000Y-106733674D01*
X137850000Y-106580482D01*
X137849646Y-106573874D01*
X137846305Y-106542804D01*
X137854696Y-106482914D01*
X137890416Y-106434116D01*
X137944968Y-106408016D01*
X138005377Y-106410821D01*
X138057275Y-106441865D01*
X138352707Y-106737297D01*
X138360156Y-106745483D01*
X138364214Y-106751877D01*
X138369899Y-106757215D01*
X138369901Y-106757218D01*
X138413239Y-106797915D01*
X138416035Y-106800625D01*
X138435530Y-106820120D01*
X138438615Y-106822513D01*
X138438701Y-106822580D01*
X138447573Y-106830158D01*
X138479418Y-106860062D01*
X138486248Y-106863817D01*
X138486251Y-106863819D01*
X138496971Y-106869712D01*
X138513222Y-106880386D01*
X138529064Y-106892674D01*
X138536221Y-106895771D01*
X138536223Y-106895772D01*
X138569155Y-106910022D01*
X138579650Y-106915164D01*
X138617908Y-106936197D01*
X138637312Y-106941179D01*
X138655714Y-106947480D01*
X138665363Y-106951655D01*
X138674105Y-106955438D01*
X138711697Y-106961391D01*
X138717239Y-106962269D01*
X138728682Y-106964639D01*
X138763425Y-106973560D01*
X138763426Y-106973560D01*
X138770981Y-106975500D01*
X138791017Y-106975500D01*
X138810402Y-106977025D01*
X138830196Y-106980160D01*
X138868276Y-106976560D01*
X138873676Y-106976050D01*
X138885345Y-106975500D01*
X139974772Y-106975500D01*
X140032029Y-106989511D01*
X140076347Y-107028376D01*
X140208399Y-107216966D01*
X140208402Y-107216970D01*
X140211505Y-107221401D01*
X140378599Y-107388495D01*
X140572170Y-107524035D01*
X140786337Y-107623903D01*
X140791567Y-107625304D01*
X140791569Y-107625305D01*
X140833619Y-107636572D01*
X141014592Y-107685063D01*
X141250000Y-107705659D01*
X141485408Y-107685063D01*
X141713663Y-107623903D01*
X141927830Y-107524035D01*
X142121401Y-107388495D01*
X142288495Y-107221401D01*
X142424035Y-107027830D01*
X142523903Y-106813663D01*
X142585063Y-106585408D01*
X142605659Y-106350000D01*
X142585063Y-106114592D01*
X142523903Y-105886337D01*
X142424035Y-105672171D01*
X142288495Y-105478599D01*
X142121401Y-105311505D01*
X142116968Y-105308401D01*
X142116961Y-105308395D01*
X141935842Y-105181575D01*
X141896976Y-105137257D01*
X141882965Y-105080000D01*
X141896976Y-105022743D01*
X141935842Y-104978425D01*
X142116961Y-104851604D01*
X142116961Y-104851603D01*
X142121401Y-104848495D01*
X142288495Y-104681401D01*
X142424035Y-104487830D01*
X142523903Y-104273663D01*
X142585063Y-104045408D01*
X142605659Y-103810000D01*
X142585063Y-103574592D01*
X142523903Y-103346337D01*
X142424035Y-103132171D01*
X142288495Y-102938599D01*
X142121401Y-102771505D01*
X142116968Y-102768401D01*
X142116961Y-102768395D01*
X141935842Y-102641575D01*
X141896976Y-102597257D01*
X141882965Y-102540000D01*
X141896976Y-102482743D01*
X141935842Y-102438425D01*
X142116961Y-102311604D01*
X142116961Y-102311603D01*
X142121401Y-102308495D01*
X142288495Y-102141401D01*
X142424035Y-101947830D01*
X142523903Y-101733663D01*
X142585063Y-101505408D01*
X142605659Y-101270000D01*
X142585063Y-101034592D01*
X142534914Y-100847431D01*
X142525305Y-100811569D01*
X142525304Y-100811567D01*
X142523903Y-100806337D01*
X142424035Y-100592171D01*
X142288495Y-100398599D01*
X142121401Y-100231505D01*
X142116968Y-100228401D01*
X142116961Y-100228395D01*
X141935842Y-100101575D01*
X141896976Y-100057257D01*
X141882965Y-100000000D01*
X141896976Y-99942743D01*
X141935842Y-99898425D01*
X142116961Y-99771604D01*
X142116961Y-99771603D01*
X142121401Y-99768495D01*
X142288495Y-99601401D01*
X142424035Y-99407830D01*
X142523903Y-99193663D01*
X142585063Y-98965408D01*
X142605659Y-98730000D01*
X142585063Y-98494592D01*
X142523903Y-98266337D01*
X142424035Y-98052171D01*
X142288495Y-97858599D01*
X142121401Y-97691505D01*
X142116968Y-97688401D01*
X142116966Y-97688399D01*
X141935405Y-97561269D01*
X141896540Y-97516951D01*
X141882529Y-97459694D01*
X141896540Y-97402437D01*
X141935406Y-97358119D01*
X142116638Y-97231219D01*
X142124909Y-97224278D01*
X142284278Y-97064909D01*
X142291215Y-97056643D01*
X142420498Y-96872008D01*
X142425886Y-96862676D01*
X142521143Y-96658397D01*
X142524831Y-96648263D01*
X142576943Y-96453780D01*
X142577311Y-96442551D01*
X142566369Y-96440000D01*
X139933631Y-96440000D01*
X139922688Y-96442551D01*
X139923056Y-96453780D01*
X139975168Y-96648263D01*
X139978856Y-96658397D01*
X140074113Y-96862676D01*
X140079501Y-96872008D01*
X140208784Y-97056643D01*
X140215721Y-97064909D01*
X140375090Y-97224278D01*
X140383356Y-97231215D01*
X140564595Y-97358120D01*
X140603460Y-97402438D01*
X140617471Y-97459695D01*
X140603460Y-97516952D01*
X140564594Y-97561270D01*
X140383031Y-97688401D01*
X140383026Y-97688405D01*
X140381118Y-97689740D01*
X140381116Y-97689742D01*
X140378599Y-97691505D01*
X140378314Y-97691098D01*
X140327235Y-97715824D01*
X140266600Y-97713175D01*
X140214485Y-97682066D01*
X138318893Y-95786474D01*
X138311406Y-95778245D01*
X138307340Y-95771838D01*
X138258152Y-95725647D01*
X138255355Y-95722936D01*
X138238558Y-95706139D01*
X138235796Y-95703377D01*
X138232714Y-95700987D01*
X138232710Y-95700983D01*
X138232604Y-95700901D01*
X138223716Y-95693310D01*
X138197452Y-95668646D01*
X138197453Y-95668646D01*
X138191767Y-95663307D01*
X138184932Y-95659549D01*
X138184930Y-95659548D01*
X138174119Y-95653604D01*
X138157860Y-95642923D01*
X138148130Y-95635376D01*
X138148127Y-95635374D01*
X138141962Y-95630592D01*
X138134804Y-95627494D01*
X138134800Y-95627492D01*
X138101736Y-95613184D01*
X138091247Y-95608045D01*
X138059672Y-95590686D01*
X138059663Y-95590682D01*
X138052834Y-95586928D01*
X138033337Y-95581921D01*
X138014931Y-95575620D01*
X138003616Y-95570723D01*
X138003612Y-95570721D01*
X137996458Y-95567626D01*
X137988753Y-95566405D01*
X137988751Y-95566405D01*
X137953172Y-95560770D01*
X137941734Y-95558402D01*
X137906829Y-95549440D01*
X137906827Y-95549439D01*
X137899272Y-95547500D01*
X137891468Y-95547500D01*
X137889519Y-95547500D01*
X137886128Y-95546825D01*
X137883733Y-95546523D01*
X137883754Y-95546353D01*
X137842066Y-95538061D01*
X137801838Y-95511181D01*
X137715488Y-95424831D01*
X137710185Y-95419528D01*
X137703772Y-95415651D01*
X137703768Y-95415648D01*
X137699585Y-95413120D01*
X137652493Y-95361784D01*
X137640512Y-95293158D01*
X137667424Y-95228903D01*
X137724734Y-95189298D01*
X137801626Y-95163819D01*
X137814633Y-95157753D01*
X137946580Y-95076367D01*
X137957842Y-95067462D01*
X138067462Y-94957842D01*
X138076367Y-94946580D01*
X138157753Y-94814633D01*
X138163819Y-94801625D01*
X138212727Y-94654030D01*
X138215543Y-94640874D01*
X138224680Y-94551444D01*
X138225000Y-94545168D01*
X138225000Y-94541326D01*
X138221549Y-94528450D01*
X138208674Y-94525000D01*
X137124000Y-94525000D01*
X137062000Y-94508387D01*
X137016613Y-94463000D01*
X137000000Y-94401000D01*
X137000000Y-94149000D01*
X137016613Y-94087000D01*
X137062000Y-94041613D01*
X137124000Y-94025000D01*
X138208673Y-94025000D01*
X138221548Y-94021549D01*
X138224999Y-94008674D01*
X138224999Y-94004835D01*
X138224678Y-93998552D01*
X138215544Y-93909132D01*
X138212725Y-93895963D01*
X138163819Y-93748374D01*
X138157755Y-93735370D01*
X138114102Y-93664598D01*
X138095670Y-93602206D01*
X138111362Y-93539069D01*
X138156861Y-93492567D01*
X138219640Y-93475500D01*
X139097770Y-93475500D01*
X139145223Y-93484939D01*
X139185451Y-93511819D01*
X139863181Y-94189548D01*
X139890061Y-94229776D01*
X139899500Y-94277229D01*
X139899500Y-94544560D01*
X139899500Y-94544578D01*
X139899501Y-94547872D01*
X139899853Y-94551150D01*
X139899854Y-94551161D01*
X139905079Y-94599768D01*
X139905080Y-94599773D01*
X139905909Y-94607483D01*
X139908619Y-94614749D01*
X139908620Y-94614753D01*
X139932678Y-94679255D01*
X139956204Y-94742331D01*
X139961518Y-94749430D01*
X139961519Y-94749431D01*
X140000591Y-94801625D01*
X140042454Y-94857546D01*
X140157669Y-94943796D01*
X140289598Y-94993002D01*
X140339977Y-95027981D01*
X140367431Y-95082825D01*
X140365242Y-95144118D01*
X140333947Y-95196865D01*
X140215714Y-95315098D01*
X140208784Y-95323357D01*
X140079508Y-95507982D01*
X140074110Y-95517332D01*
X139978856Y-95721602D01*
X139975168Y-95731736D01*
X139923056Y-95926219D01*
X139922688Y-95937448D01*
X139933631Y-95940000D01*
X142566369Y-95940000D01*
X142577311Y-95937448D01*
X142576943Y-95926219D01*
X142524831Y-95731736D01*
X142521143Y-95721602D01*
X142425889Y-95517332D01*
X142420491Y-95507982D01*
X142291215Y-95323357D01*
X142284280Y-95315092D01*
X142166053Y-95196865D01*
X142134757Y-95144119D01*
X142132568Y-95082825D01*
X142160022Y-95027981D01*
X142210398Y-94993003D01*
X142342331Y-94943796D01*
X142457546Y-94857546D01*
X142543796Y-94742331D01*
X142594091Y-94607483D01*
X142600500Y-94547873D01*
X142600499Y-92752128D01*
X142594091Y-92692517D01*
X142543796Y-92557669D01*
X142457546Y-92442454D01*
X142342331Y-92356204D01*
X142251084Y-92322171D01*
X142214752Y-92308620D01*
X142214750Y-92308619D01*
X142207483Y-92305909D01*
X142199770Y-92305079D01*
X142199767Y-92305079D01*
X142151180Y-92299855D01*
X142151169Y-92299854D01*
X142147873Y-92299500D01*
X142144550Y-92299500D01*
X140355439Y-92299500D01*
X140355420Y-92299500D01*
X140352128Y-92299501D01*
X140348850Y-92299853D01*
X140348838Y-92299854D01*
X140300231Y-92305079D01*
X140300225Y-92305080D01*
X140292517Y-92305909D01*
X140285250Y-92308619D01*
X140285243Y-92308621D01*
X140228620Y-92329740D01*
X140158929Y-92334724D01*
X140097606Y-92301239D01*
X140035725Y-92239357D01*
X140023944Y-92225723D01*
X140013925Y-92212265D01*
X140013921Y-92212261D01*
X140009610Y-92206470D01*
X139971667Y-92174631D01*
X139963691Y-92167323D01*
X139962329Y-92165961D01*
X139959777Y-92163409D01*
X139956953Y-92161176D01*
X139956944Y-92161168D01*
X139935445Y-92144170D01*
X139932674Y-92141913D01*
X139875214Y-92093698D01*
X139868760Y-92090456D01*
X139865859Y-92088548D01*
X139865588Y-92088352D01*
X139865292Y-92088187D01*
X139862339Y-92086366D01*
X139856677Y-92081889D01*
X139850134Y-92078838D01*
X139850131Y-92078836D01*
X139788692Y-92050186D01*
X139785446Y-92048615D01*
X139724884Y-92018200D01*
X139724885Y-92018200D01*
X139718433Y-92014960D01*
X139711409Y-92013295D01*
X139708151Y-92012109D01*
X139707832Y-92011977D01*
X139707504Y-92011884D01*
X139704218Y-92010794D01*
X139697673Y-92007743D01*
X139690606Y-92006283D01*
X139690601Y-92006282D01*
X139640503Y-91995938D01*
X139586334Y-91969874D01*
X139550789Y-91921396D01*
X139542221Y-91861897D01*
X139562644Y-91805359D01*
X139607258Y-91765071D01*
X139665579Y-91750500D01*
X145125500Y-91750500D01*
X145187500Y-91767113D01*
G37*
%TD.AperFunction*%
%TA.AperFunction,Conductor*%
G36*
X119346537Y-91764015D02*
G01*
X119390560Y-91801615D01*
X119412715Y-91855102D01*
X119408173Y-91912818D01*
X119377923Y-91962181D01*
X119215334Y-92124769D01*
X119215328Y-92124775D01*
X119211505Y-92128599D01*
X119208402Y-92133029D01*
X119208399Y-92133034D01*
X119079073Y-92317731D01*
X119079068Y-92317738D01*
X119075965Y-92322171D01*
X119073677Y-92327077D01*
X119073675Y-92327081D01*
X118978386Y-92531427D01*
X118978383Y-92531432D01*
X118976097Y-92536337D01*
X118974698Y-92541557D01*
X118974694Y-92541569D01*
X118916337Y-92759365D01*
X118916335Y-92759371D01*
X118914937Y-92764592D01*
X118914465Y-92769977D01*
X118914465Y-92769982D01*
X118904981Y-92878382D01*
X118894341Y-93000000D01*
X118914937Y-93235408D01*
X118916336Y-93240630D01*
X118916337Y-93240634D01*
X118974694Y-93458430D01*
X118974697Y-93458438D01*
X118976097Y-93463663D01*
X118978385Y-93468570D01*
X118978386Y-93468572D01*
X119073678Y-93672927D01*
X119073681Y-93672933D01*
X119075965Y-93677830D01*
X119079064Y-93682257D01*
X119079066Y-93682259D01*
X119208399Y-93866966D01*
X119208402Y-93866970D01*
X119211505Y-93871401D01*
X119378599Y-94038495D01*
X119383032Y-94041599D01*
X119383038Y-94041604D01*
X119564158Y-94168425D01*
X119603024Y-94212743D01*
X119617035Y-94270000D01*
X119603024Y-94327257D01*
X119564160Y-94371574D01*
X119378599Y-94501505D01*
X119374775Y-94505328D01*
X119374769Y-94505334D01*
X119215334Y-94664769D01*
X119215328Y-94664775D01*
X119211505Y-94668599D01*
X119208402Y-94673029D01*
X119208399Y-94673034D01*
X119079073Y-94857731D01*
X119079068Y-94857738D01*
X119075965Y-94862171D01*
X119073677Y-94867077D01*
X119073675Y-94867081D01*
X118978386Y-95071427D01*
X118978383Y-95071432D01*
X118976097Y-95076337D01*
X118974698Y-95081557D01*
X118974694Y-95081569D01*
X118916337Y-95299365D01*
X118916335Y-95299371D01*
X118914937Y-95304592D01*
X118914465Y-95309977D01*
X118914465Y-95309982D01*
X118897841Y-95500000D01*
X118894341Y-95540000D01*
X118900744Y-95613184D01*
X118914157Y-95766499D01*
X118914937Y-95775408D01*
X118916336Y-95780630D01*
X118916337Y-95780634D01*
X118974694Y-95998430D01*
X118974697Y-95998438D01*
X118976097Y-96003663D01*
X118978385Y-96008570D01*
X118978386Y-96008572D01*
X119073678Y-96212927D01*
X119073681Y-96212933D01*
X119075965Y-96217830D01*
X119079064Y-96222257D01*
X119079066Y-96222259D01*
X119208399Y-96406966D01*
X119208402Y-96406970D01*
X119211505Y-96411401D01*
X119378599Y-96578495D01*
X119383031Y-96581598D01*
X119383033Y-96581600D01*
X119564595Y-96708731D01*
X119603460Y-96753049D01*
X119617471Y-96810306D01*
X119603460Y-96867563D01*
X119564595Y-96911881D01*
X119383352Y-97038788D01*
X119375092Y-97045719D01*
X119215719Y-97205092D01*
X119208784Y-97213357D01*
X119079508Y-97397982D01*
X119074110Y-97407332D01*
X118978856Y-97611602D01*
X118975168Y-97621736D01*
X118923056Y-97816219D01*
X118922688Y-97827448D01*
X118933631Y-97830000D01*
X121566369Y-97830000D01*
X121577311Y-97827448D01*
X121576943Y-97816219D01*
X121524831Y-97621736D01*
X121521143Y-97611602D01*
X121425889Y-97407332D01*
X121420491Y-97397982D01*
X121291215Y-97213357D01*
X121284280Y-97205092D01*
X121124909Y-97045721D01*
X121116643Y-97038784D01*
X120935405Y-96911880D01*
X120896540Y-96867562D01*
X120882529Y-96810305D01*
X120896540Y-96753048D01*
X120935406Y-96708730D01*
X120943527Y-96703044D01*
X121121401Y-96578495D01*
X121288495Y-96411401D01*
X121424035Y-96217830D01*
X121523903Y-96003663D01*
X121585063Y-95775408D01*
X121605659Y-95540000D01*
X121585063Y-95304592D01*
X121527027Y-95087997D01*
X121525305Y-95081569D01*
X121525304Y-95081567D01*
X121523903Y-95076337D01*
X121424035Y-94862171D01*
X121288495Y-94668599D01*
X121121401Y-94501505D01*
X121116970Y-94498402D01*
X121116966Y-94498399D01*
X120935841Y-94371574D01*
X120896976Y-94327256D01*
X120882965Y-94269999D01*
X120896976Y-94212742D01*
X120935839Y-94168426D01*
X121121401Y-94038495D01*
X121288495Y-93871401D01*
X121424035Y-93677830D01*
X121523903Y-93463663D01*
X121585063Y-93235408D01*
X121605659Y-93000000D01*
X121585063Y-92764592D01*
X121523903Y-92536337D01*
X121424035Y-92322171D01*
X121288495Y-92128599D01*
X121122077Y-91962181D01*
X121091827Y-91912818D01*
X121087285Y-91855102D01*
X121109440Y-91801615D01*
X121153463Y-91764015D01*
X121209758Y-91750500D01*
X125838428Y-91750500D01*
X125903595Y-91769005D01*
X125949312Y-91818996D01*
X125961934Y-91885553D01*
X125937695Y-91948811D01*
X125861519Y-92050568D01*
X125861516Y-92050572D01*
X125856204Y-92057669D01*
X125853104Y-92065978D01*
X125853104Y-92065980D01*
X125808620Y-92185247D01*
X125808619Y-92185250D01*
X125805909Y-92192517D01*
X125805079Y-92200227D01*
X125805079Y-92200232D01*
X125799855Y-92248819D01*
X125799854Y-92248831D01*
X125799500Y-92252127D01*
X125799500Y-92557669D01*
X125799501Y-92753853D01*
X125782888Y-92815853D01*
X125737501Y-92861240D01*
X125675501Y-92877853D01*
X123000000Y-92877853D01*
X122995983Y-92878381D01*
X122995980Y-92878382D01*
X122877189Y-92894021D01*
X122877182Y-92894022D01*
X122869129Y-92895083D01*
X122861619Y-92898193D01*
X122861618Y-92898194D01*
X122754686Y-92942486D01*
X122754681Y-92942488D01*
X122747177Y-92945597D01*
X122740732Y-92950541D01*
X122740729Y-92950544D01*
X122648896Y-93021010D01*
X122648892Y-93021013D01*
X122642454Y-93025954D01*
X122637513Y-93032392D01*
X122637510Y-93032396D01*
X122567044Y-93124229D01*
X122567041Y-93124232D01*
X122562097Y-93130677D01*
X122558988Y-93138181D01*
X122558986Y-93138186D01*
X122520949Y-93230017D01*
X122511583Y-93252629D01*
X122510522Y-93260682D01*
X122510521Y-93260689D01*
X122494882Y-93379480D01*
X122494353Y-93383500D01*
X122494353Y-95116500D01*
X122494881Y-95120517D01*
X122494882Y-95120519D01*
X122509151Y-95228903D01*
X122511583Y-95247371D01*
X122514694Y-95254882D01*
X122514695Y-95254885D01*
X122542329Y-95321599D01*
X122562097Y-95369324D01*
X122567043Y-95375770D01*
X122567045Y-95375773D01*
X122637507Y-95467600D01*
X122637510Y-95467603D01*
X122642454Y-95474046D01*
X122747177Y-95554403D01*
X122869129Y-95604917D01*
X122914292Y-95610863D01*
X122916685Y-95611178D01*
X122971623Y-95632542D01*
X123010489Y-95676860D01*
X123024500Y-95734117D01*
X123024500Y-96914201D01*
X123012108Y-96968235D01*
X122981022Y-97006966D01*
X122981344Y-97007288D01*
X122978409Y-97010222D01*
X122978404Y-97010227D01*
X122976237Y-97012394D01*
X122976233Y-97012398D01*
X122862393Y-97126238D01*
X122862389Y-97126242D01*
X122857288Y-97131344D01*
X122853503Y-97137480D01*
X122853497Y-97137488D01*
X122768977Y-97274519D01*
X122765186Y-97280666D01*
X122762915Y-97287517D01*
X122762914Y-97287521D01*
X122723213Y-97407332D01*
X122710001Y-97447203D01*
X122709312Y-97453938D01*
X122709313Y-97453938D01*
X122705557Y-97490701D01*
X122688208Y-97542425D01*
X122650338Y-97581698D01*
X122598222Y-97615975D01*
X122595182Y-97617911D01*
X122537492Y-97653495D01*
X122537483Y-97653501D01*
X122531345Y-97657288D01*
X122526243Y-97662389D01*
X122523504Y-97664555D01*
X122523235Y-97664749D01*
X122522994Y-97664970D01*
X122520326Y-97667208D01*
X122514304Y-97671170D01*
X122509361Y-97676408D01*
X122509354Y-97676415D01*
X122462816Y-97725742D01*
X122460304Y-97728327D01*
X122014358Y-98174272D01*
X122000730Y-98186050D01*
X121987263Y-98196076D01*
X121987257Y-98196081D01*
X121981470Y-98200390D01*
X121976832Y-98205916D01*
X121976830Y-98205919D01*
X121949633Y-98238330D01*
X121942350Y-98246280D01*
X121940969Y-98247661D01*
X121940955Y-98247676D01*
X121938409Y-98250223D01*
X121936173Y-98253050D01*
X121936171Y-98253053D01*
X121919176Y-98274546D01*
X121916902Y-98277337D01*
X121873339Y-98329254D01*
X121873335Y-98329258D01*
X121868698Y-98334786D01*
X121865460Y-98341230D01*
X121863537Y-98344155D01*
X121863352Y-98344411D01*
X121863192Y-98344698D01*
X121861363Y-98347663D01*
X121856889Y-98353323D01*
X121853839Y-98359862D01*
X121853838Y-98359865D01*
X121825192Y-98421294D01*
X121823622Y-98424536D01*
X121793135Y-98485243D01*
X121753940Y-98530822D01*
X121752036Y-98531562D01*
X121760957Y-98547012D01*
X121762158Y-98608862D01*
X121751164Y-98655250D01*
X121751162Y-98655265D01*
X121749500Y-98662279D01*
X121749500Y-98669490D01*
X121749097Y-98672939D01*
X121749043Y-98673273D01*
X121749028Y-98673626D01*
X121748726Y-98677070D01*
X121747266Y-98684144D01*
X121747476Y-98691360D01*
X121747476Y-98691361D01*
X121749448Y-98759130D01*
X121749500Y-98762737D01*
X121749500Y-99745500D01*
X121732887Y-99807500D01*
X121687500Y-99852887D01*
X121625500Y-99869500D01*
X121437700Y-99869500D01*
X121380443Y-99855489D01*
X121336125Y-99816623D01*
X121329737Y-99807500D01*
X121299743Y-99764663D01*
X121291600Y-99753033D01*
X121291598Y-99753030D01*
X121288495Y-99748599D01*
X121121401Y-99581505D01*
X121116970Y-99578402D01*
X121116966Y-99578399D01*
X120935405Y-99451269D01*
X120896540Y-99406951D01*
X120882529Y-99349694D01*
X120896540Y-99292437D01*
X120935406Y-99248119D01*
X121116638Y-99121219D01*
X121124909Y-99114278D01*
X121284278Y-98954909D01*
X121291215Y-98946643D01*
X121420498Y-98762008D01*
X121425886Y-98752676D01*
X121521141Y-98548401D01*
X121524976Y-98537864D01*
X121559964Y-98486846D01*
X121573106Y-98480245D01*
X121561529Y-98457605D01*
X121562549Y-98397500D01*
X121576943Y-98343779D01*
X121577311Y-98332551D01*
X121566369Y-98330000D01*
X118933631Y-98330000D01*
X118922688Y-98332551D01*
X118923056Y-98343780D01*
X118975168Y-98538263D01*
X118978856Y-98548397D01*
X119074113Y-98752676D01*
X119079501Y-98762008D01*
X119208784Y-98946643D01*
X119215721Y-98954909D01*
X119375090Y-99114278D01*
X119383356Y-99121215D01*
X119564595Y-99248120D01*
X119603460Y-99292438D01*
X119617471Y-99349695D01*
X119603460Y-99406952D01*
X119564594Y-99451270D01*
X119383034Y-99578399D01*
X119383029Y-99578402D01*
X119378599Y-99581505D01*
X119374775Y-99585328D01*
X119374769Y-99585334D01*
X119215334Y-99744769D01*
X119215328Y-99744775D01*
X119211505Y-99748599D01*
X119208402Y-99753029D01*
X119208399Y-99753034D01*
X119079073Y-99937731D01*
X119079068Y-99937738D01*
X119075965Y-99942171D01*
X119073677Y-99947077D01*
X119073675Y-99947081D01*
X118978386Y-100151427D01*
X118978383Y-100151432D01*
X118976097Y-100156337D01*
X118974698Y-100161557D01*
X118974694Y-100161569D01*
X118916337Y-100379365D01*
X118916335Y-100379371D01*
X118914937Y-100384592D01*
X118914465Y-100389977D01*
X118914465Y-100389982D01*
X118899078Y-100565855D01*
X118894341Y-100620000D01*
X118894813Y-100625395D01*
X118910643Y-100806337D01*
X118914937Y-100855408D01*
X118916336Y-100860630D01*
X118916337Y-100860634D01*
X118974694Y-101078430D01*
X118974697Y-101078438D01*
X118976097Y-101083663D01*
X118978385Y-101088570D01*
X118978386Y-101088572D01*
X119073678Y-101292927D01*
X119073681Y-101292933D01*
X119075965Y-101297830D01*
X119079064Y-101302257D01*
X119079066Y-101302259D01*
X119208399Y-101486966D01*
X119208402Y-101486970D01*
X119211505Y-101491401D01*
X119215336Y-101495232D01*
X119333430Y-101613326D01*
X119364726Y-101666072D01*
X119366915Y-101727365D01*
X119339462Y-101782210D01*
X119289083Y-101817189D01*
X119208554Y-101847225D01*
X119157669Y-101866204D01*
X119150572Y-101871516D01*
X119150568Y-101871519D01*
X119049550Y-101947141D01*
X119049546Y-101947144D01*
X119042454Y-101952454D01*
X119037144Y-101959546D01*
X119037141Y-101959550D01*
X118961519Y-102060568D01*
X118961516Y-102060572D01*
X118956204Y-102067669D01*
X118953104Y-102075978D01*
X118953104Y-102075980D01*
X118908620Y-102195247D01*
X118908619Y-102195250D01*
X118905909Y-102202517D01*
X118905079Y-102210227D01*
X118905079Y-102210232D01*
X118899855Y-102258819D01*
X118899854Y-102258831D01*
X118899500Y-102262127D01*
X118899500Y-102265448D01*
X118899500Y-102265449D01*
X118899500Y-104054560D01*
X118899500Y-104054578D01*
X118899501Y-104057872D01*
X118899853Y-104061150D01*
X118899854Y-104061161D01*
X118905079Y-104109768D01*
X118905080Y-104109773D01*
X118905909Y-104117483D01*
X118908619Y-104124749D01*
X118908620Y-104124753D01*
X118913143Y-104136879D01*
X118956204Y-104252331D01*
X118961518Y-104259430D01*
X118961519Y-104259431D01*
X119002276Y-104313876D01*
X119042454Y-104367546D01*
X119157669Y-104453796D01*
X119292517Y-104504091D01*
X119352127Y-104510500D01*
X121147872Y-104510499D01*
X121207483Y-104504091D01*
X121342331Y-104453796D01*
X121457546Y-104367546D01*
X121543796Y-104252331D01*
X121594091Y-104117483D01*
X121600500Y-104057873D01*
X121600499Y-103412326D01*
X121616398Y-103351583D01*
X121660017Y-103306414D01*
X121720172Y-103288405D01*
X121781436Y-103302174D01*
X121828100Y-103344191D01*
X121865979Y-103401784D01*
X121867900Y-103404799D01*
X121907288Y-103468656D01*
X121912392Y-103473760D01*
X121914542Y-103476479D01*
X121914739Y-103476752D01*
X121914973Y-103477007D01*
X121917202Y-103479663D01*
X121921170Y-103485696D01*
X121926423Y-103490652D01*
X121926424Y-103490653D01*
X121975708Y-103537150D01*
X121978295Y-103539663D01*
X122808181Y-104369549D01*
X122835061Y-104409777D01*
X122844500Y-104457230D01*
X122844500Y-105617674D01*
X122839576Y-105652269D01*
X122799170Y-105791342D01*
X122799168Y-105791351D01*
X122797402Y-105797431D01*
X122796905Y-105803739D01*
X122796904Y-105803748D01*
X122794691Y-105831871D01*
X122794690Y-105831886D01*
X122794500Y-105834306D01*
X122794500Y-105836751D01*
X122794500Y-106375500D01*
X122777887Y-106437500D01*
X122732500Y-106482887D01*
X122670500Y-106499500D01*
X122576874Y-106499500D01*
X122529421Y-106490061D01*
X122489193Y-106463181D01*
X122458154Y-106432142D01*
X122458153Y-106432141D01*
X122453044Y-106427032D01*
X122446894Y-106423238D01*
X122446892Y-106423237D01*
X122314845Y-106341789D01*
X122314843Y-106341788D01*
X122308697Y-106337997D01*
X122301842Y-106335725D01*
X122301841Y-106335725D01*
X122154136Y-106286781D01*
X122154135Y-106286780D01*
X122147708Y-106284651D01*
X122140975Y-106283963D01*
X122140970Y-106283962D01*
X122051476Y-106274819D01*
X122051459Y-106274818D01*
X122048345Y-106274500D01*
X122045196Y-106274500D01*
X121504805Y-106274500D01*
X121504785Y-106274500D01*
X121501656Y-106274501D01*
X121498524Y-106274820D01*
X121498522Y-106274821D01*
X121409027Y-106283962D01*
X121409017Y-106283963D01*
X121402292Y-106284651D01*
X121395870Y-106286778D01*
X121395865Y-106286780D01*
X121248158Y-106335725D01*
X121248154Y-106335726D01*
X121241303Y-106337997D01*
X121235159Y-106341786D01*
X121235154Y-106341789D01*
X121103104Y-106423239D01*
X121103099Y-106423242D01*
X121096956Y-106427032D01*
X121091855Y-106432132D01*
X121091841Y-106432144D01*
X121087317Y-106436668D01*
X121031730Y-106468755D01*
X120967547Y-106468752D01*
X120911964Y-106436659D01*
X120907842Y-106432537D01*
X120896580Y-106423632D01*
X120764633Y-106342246D01*
X120751625Y-106336180D01*
X120604030Y-106287272D01*
X120590874Y-106284456D01*
X120501444Y-106275319D01*
X120495168Y-106275000D01*
X120491326Y-106275000D01*
X120478450Y-106278450D01*
X120475000Y-106291326D01*
X120475000Y-107376000D01*
X120458387Y-107438000D01*
X120413000Y-107483387D01*
X120351000Y-107500000D01*
X119291327Y-107500000D01*
X119278451Y-107503450D01*
X119275001Y-107516326D01*
X119275001Y-107545165D01*
X119275321Y-107551447D01*
X119284455Y-107640867D01*
X119287274Y-107654036D01*
X119336180Y-107801625D01*
X119342246Y-107814633D01*
X119423632Y-107946580D01*
X119432537Y-107957842D01*
X119512514Y-108037819D01*
X119542764Y-108087182D01*
X119547306Y-108144898D01*
X119525151Y-108198385D01*
X119481128Y-108235985D01*
X119424833Y-108249500D01*
X118624500Y-108249500D01*
X118562500Y-108232887D01*
X118517113Y-108187500D01*
X118500500Y-108125500D01*
X118500500Y-106983674D01*
X119275000Y-106983674D01*
X119278450Y-106996549D01*
X119291326Y-107000000D01*
X119958674Y-107000000D01*
X119971549Y-106996549D01*
X119975000Y-106983674D01*
X119975000Y-106291327D01*
X119971549Y-106278451D01*
X119958674Y-106275001D01*
X119954835Y-106275001D01*
X119948552Y-106275321D01*
X119859132Y-106284455D01*
X119845963Y-106287274D01*
X119698374Y-106336180D01*
X119685366Y-106342246D01*
X119553419Y-106423632D01*
X119542157Y-106432537D01*
X119432537Y-106542157D01*
X119423632Y-106553419D01*
X119342246Y-106685366D01*
X119336180Y-106698374D01*
X119287272Y-106845969D01*
X119284456Y-106859125D01*
X119275319Y-106948555D01*
X119275000Y-106954832D01*
X119275000Y-106983674D01*
X118500500Y-106983674D01*
X118500500Y-91874500D01*
X118517113Y-91812500D01*
X118562500Y-91767113D01*
X118624500Y-91750500D01*
X119290242Y-91750500D01*
X119346537Y-91764015D01*
G37*
%TD.AperFunction*%
%TA.AperFunction,Conductor*%
G36*
X137821220Y-101580562D02*
G01*
X137860376Y-101624943D01*
X137874500Y-101682418D01*
X137874500Y-101847225D01*
X137873978Y-101858280D01*
X137872327Y-101865667D01*
X137872571Y-101873453D01*
X137872571Y-101873461D01*
X137874439Y-101932873D01*
X137874500Y-101936768D01*
X137874500Y-101964350D01*
X137874988Y-101968219D01*
X137874989Y-101968225D01*
X137875004Y-101968343D01*
X137875918Y-101979966D01*
X137877045Y-102015830D01*
X137877046Y-102015837D01*
X137877291Y-102023627D01*
X137879466Y-102031116D01*
X137880606Y-102038306D01*
X137874407Y-102100792D01*
X137838391Y-102152229D01*
X137781794Y-102179428D01*
X137719130Y-102175412D01*
X137604030Y-102137272D01*
X137590874Y-102134456D01*
X137501444Y-102125319D01*
X137495168Y-102125000D01*
X137491326Y-102125000D01*
X137478450Y-102128450D01*
X137475000Y-102141326D01*
X137475000Y-102833674D01*
X137478450Y-102846549D01*
X137491326Y-102850000D01*
X138158673Y-102850000D01*
X138171548Y-102846549D01*
X138174999Y-102833674D01*
X138174999Y-102804835D01*
X138174679Y-102798555D01*
X138174343Y-102795270D01*
X138182996Y-102735544D01*
X138218818Y-102686976D01*
X138273325Y-102661071D01*
X138333605Y-102663964D01*
X138385380Y-102694971D01*
X139020089Y-103329680D01*
X139960529Y-104270120D01*
X139963609Y-104272509D01*
X139964472Y-104273270D01*
X139994848Y-104313876D01*
X140073678Y-104482927D01*
X140073681Y-104482933D01*
X140075965Y-104487830D01*
X140079064Y-104492257D01*
X140079066Y-104492259D01*
X140208399Y-104676966D01*
X140208402Y-104676970D01*
X140211505Y-104681401D01*
X140378599Y-104848495D01*
X140383032Y-104851599D01*
X140383038Y-104851604D01*
X140564158Y-104978425D01*
X140603024Y-105022743D01*
X140617035Y-105080000D01*
X140603024Y-105137257D01*
X140564159Y-105181575D01*
X140383041Y-105308395D01*
X140378599Y-105311505D01*
X140374775Y-105315328D01*
X140374769Y-105315334D01*
X140215334Y-105474769D01*
X140215328Y-105474775D01*
X140211505Y-105478599D01*
X140208402Y-105483029D01*
X140208399Y-105483034D01*
X140084751Y-105659623D01*
X140040433Y-105698489D01*
X139983176Y-105712500D01*
X139850524Y-105712500D01*
X139846663Y-105712987D01*
X139846659Y-105712988D01*
X139763278Y-105723522D01*
X139747736Y-105724500D01*
X139160452Y-105724500D01*
X139112999Y-105715061D01*
X139072771Y-105688181D01*
X138572846Y-105188256D01*
X138047286Y-104662695D01*
X138039842Y-104654514D01*
X138035786Y-104648123D01*
X137986775Y-104602098D01*
X137983978Y-104599387D01*
X137967227Y-104582636D01*
X137964471Y-104579880D01*
X137961290Y-104577412D01*
X137952414Y-104569830D01*
X137926269Y-104545278D01*
X137926267Y-104545276D01*
X137920582Y-104539938D01*
X137913749Y-104536182D01*
X137913743Y-104536177D01*
X137903025Y-104530285D01*
X137886766Y-104519606D01*
X137877095Y-104512104D01*
X137877092Y-104512102D01*
X137870936Y-104507327D01*
X137863779Y-104504229D01*
X137863776Y-104504228D01*
X137830849Y-104489978D01*
X137820361Y-104484840D01*
X137801456Y-104474447D01*
X137761926Y-104440096D01*
X137712858Y-104374550D01*
X137707546Y-104367454D01*
X137592741Y-104281511D01*
X137592739Y-104281509D01*
X137592331Y-104281204D01*
X137592358Y-104281167D01*
X137554136Y-104246825D01*
X137533264Y-104193714D01*
X137538388Y-104136879D01*
X137568423Y-104088358D01*
X137617008Y-104058426D01*
X137751625Y-104013819D01*
X137764633Y-104007753D01*
X137896580Y-103926367D01*
X137907842Y-103917462D01*
X138017462Y-103807842D01*
X138026367Y-103796580D01*
X138107753Y-103664633D01*
X138113819Y-103651625D01*
X138162727Y-103504030D01*
X138165543Y-103490874D01*
X138174680Y-103401444D01*
X138175000Y-103395168D01*
X138175000Y-103366326D01*
X138171549Y-103353450D01*
X138158674Y-103350000D01*
X137099000Y-103350000D01*
X137037000Y-103333387D01*
X136991613Y-103288000D01*
X136975000Y-103226000D01*
X136975000Y-102141327D01*
X136971549Y-102128451D01*
X136958674Y-102125001D01*
X136954835Y-102125001D01*
X136948552Y-102125321D01*
X136859132Y-102134455D01*
X136845966Y-102137274D01*
X136786504Y-102156978D01*
X136728637Y-102161829D01*
X136674907Y-102139802D01*
X136637097Y-102095727D01*
X136623500Y-102039272D01*
X136623500Y-101715782D01*
X136635884Y-101661766D01*
X136670561Y-101618538D01*
X136720606Y-101594734D01*
X136767413Y-101595049D01*
X136767517Y-101594091D01*
X136827127Y-101600500D01*
X137572872Y-101600499D01*
X137632483Y-101594091D01*
X137684615Y-101574647D01*
X137707167Y-101566236D01*
X137765954Y-101559385D01*
X137821220Y-101580562D01*
G37*
%TD.AperFunction*%
%TA.AperFunction,Conductor*%
G36*
X132477306Y-104691097D02*
G01*
X132521380Y-104728906D01*
X132543408Y-104782636D01*
X132538557Y-104840502D01*
X132536782Y-104845856D01*
X132536778Y-104845870D01*
X132534651Y-104852292D01*
X132533963Y-104859025D01*
X132533961Y-104859035D01*
X132533251Y-104865985D01*
X132521891Y-104906599D01*
X132497575Y-104941056D01*
X132150451Y-105288181D01*
X132110223Y-105315061D01*
X132062770Y-105324500D01*
X131585736Y-105324500D01*
X131533330Y-105312882D01*
X131490745Y-105280204D01*
X131481534Y-105262509D01*
X131472813Y-105253788D01*
X131458674Y-105250000D01*
X130399000Y-105250000D01*
X130337000Y-105233387D01*
X130291613Y-105188000D01*
X130275000Y-105126000D01*
X130275000Y-104874000D01*
X130291613Y-104812000D01*
X130337000Y-104766613D01*
X130399000Y-104750000D01*
X131458673Y-104750000D01*
X131472812Y-104746211D01*
X131482586Y-104736437D01*
X131490207Y-104721797D01*
X131532793Y-104689119D01*
X131585199Y-104677500D01*
X132420851Y-104677500D01*
X132477306Y-104691097D01*
G37*
%TD.AperFunction*%
%TA.AperFunction,Conductor*%
G36*
X129119014Y-93514015D02*
G01*
X129163037Y-93551615D01*
X129185192Y-93605102D01*
X129180650Y-93662818D01*
X129150400Y-93712181D01*
X128611479Y-94251100D01*
X128603243Y-94258594D01*
X128596838Y-94262660D01*
X128591505Y-94268337D01*
X128591501Y-94268342D01*
X128550645Y-94311848D01*
X128547941Y-94314639D01*
X128528377Y-94334204D01*
X128526003Y-94337264D01*
X128525984Y-94337286D01*
X128525879Y-94337423D01*
X128518317Y-94346273D01*
X128493647Y-94372544D01*
X128493639Y-94372554D01*
X128488307Y-94378233D01*
X128484555Y-94385056D01*
X128484548Y-94385067D01*
X128478606Y-94395877D01*
X128467928Y-94412133D01*
X128460373Y-94421873D01*
X128460369Y-94421878D01*
X128455592Y-94428038D01*
X128452498Y-94435187D01*
X128452496Y-94435191D01*
X128438185Y-94468263D01*
X128433047Y-94478750D01*
X128418432Y-94505336D01*
X128411928Y-94517166D01*
X128409991Y-94524709D01*
X128409986Y-94524722D01*
X128406919Y-94536670D01*
X128400620Y-94555067D01*
X128392626Y-94573542D01*
X128391406Y-94581242D01*
X128391405Y-94581247D01*
X128385769Y-94616831D01*
X128383401Y-94628266D01*
X128374438Y-94663174D01*
X128374436Y-94663185D01*
X128372500Y-94670728D01*
X128372500Y-94678524D01*
X128372500Y-94690859D01*
X128370972Y-94710257D01*
X128367825Y-94730133D01*
X128368559Y-94737898D01*
X128368559Y-94737900D01*
X128371950Y-94773769D01*
X128372500Y-94785439D01*
X128372500Y-96671955D01*
X128371976Y-96683066D01*
X128370320Y-96690477D01*
X128370565Y-96698274D01*
X128370565Y-96698275D01*
X128372439Y-96757919D01*
X128372500Y-96761813D01*
X128372500Y-96789476D01*
X128372988Y-96793343D01*
X128372989Y-96793354D01*
X128373007Y-96793494D01*
X128373921Y-96805117D01*
X128375053Y-96841144D01*
X128375054Y-96841150D01*
X128375299Y-96848943D01*
X128377474Y-96856432D01*
X128377475Y-96856433D01*
X128380917Y-96868280D01*
X128384860Y-96887324D01*
X128386404Y-96899548D01*
X128386407Y-96899559D01*
X128387384Y-96907293D01*
X128390253Y-96914541D01*
X128390256Y-96914550D01*
X128403519Y-96948050D01*
X128407302Y-96959097D01*
X128419532Y-97001191D01*
X128423502Y-97007903D01*
X128423503Y-97007906D01*
X128429776Y-97018513D01*
X128438336Y-97035985D01*
X128445747Y-97054703D01*
X128450332Y-97061014D01*
X128450334Y-97061017D01*
X128471512Y-97090167D01*
X128477924Y-97099928D01*
X128496264Y-97130939D01*
X128496266Y-97130942D01*
X128500237Y-97137656D01*
X128505755Y-97143174D01*
X128514471Y-97151890D01*
X128527103Y-97166679D01*
X128538937Y-97182967D01*
X128544947Y-97187938D01*
X128544949Y-97187941D01*
X128572705Y-97210902D01*
X128581346Y-97218765D01*
X128586181Y-97223600D01*
X128613061Y-97263828D01*
X128622500Y-97311281D01*
X128622500Y-97425662D01*
X128614682Y-97468994D01*
X128608621Y-97485244D01*
X128608619Y-97485248D01*
X128605909Y-97492517D01*
X128605079Y-97500227D01*
X128605079Y-97500232D01*
X128599855Y-97548819D01*
X128599854Y-97548831D01*
X128599500Y-97552127D01*
X128599500Y-97555449D01*
X128599500Y-98961718D01*
X128590061Y-99009171D01*
X128563181Y-99049399D01*
X128276400Y-99336181D01*
X128236172Y-99363061D01*
X128188719Y-99372500D01*
X127953040Y-99372500D01*
X127941928Y-99371975D01*
X127934523Y-99370320D01*
X127926736Y-99370564D01*
X127926729Y-99370564D01*
X127867095Y-99372439D01*
X127863200Y-99372500D01*
X127855254Y-99372500D01*
X127798799Y-99358903D01*
X127754724Y-99321093D01*
X127732697Y-99267363D01*
X127737548Y-99209496D01*
X127787375Y-99059125D01*
X127790194Y-99045958D01*
X127799680Y-98953109D01*
X127800000Y-98946832D01*
X127800000Y-98516326D01*
X127796549Y-98503450D01*
X127783674Y-98500000D01*
X125666327Y-98500000D01*
X125653451Y-98503450D01*
X125650001Y-98516326D01*
X125650001Y-98946829D01*
X125650321Y-98953111D01*
X125659805Y-99045959D01*
X125662623Y-99059122D01*
X125715642Y-99219122D01*
X125714176Y-99219607D01*
X125723362Y-99260548D01*
X125712286Y-99312420D01*
X125680548Y-99354918D01*
X125633955Y-99380266D01*
X125631714Y-99380917D01*
X125612669Y-99384862D01*
X125600447Y-99386406D01*
X125600445Y-99386406D01*
X125592707Y-99387384D01*
X125585459Y-99390253D01*
X125585449Y-99390256D01*
X125551950Y-99403519D01*
X125540906Y-99407300D01*
X125506301Y-99417354D01*
X125506292Y-99417357D01*
X125498809Y-99419532D01*
X125481477Y-99429781D01*
X125464012Y-99438337D01*
X125452552Y-99442874D01*
X125452548Y-99442875D01*
X125445297Y-99445747D01*
X125438993Y-99450326D01*
X125438982Y-99450333D01*
X125409827Y-99471516D01*
X125400070Y-99477925D01*
X125362344Y-99500237D01*
X125356828Y-99505751D01*
X125356821Y-99505758D01*
X125348104Y-99514475D01*
X125333322Y-99527100D01*
X125323348Y-99534347D01*
X125323340Y-99534354D01*
X125317033Y-99538937D01*
X125312066Y-99544939D01*
X125312055Y-99544951D01*
X125289089Y-99572712D01*
X125281229Y-99581350D01*
X124561293Y-100301286D01*
X124508209Y-100332681D01*
X124462090Y-100346080D01*
X124462086Y-100346081D01*
X124454602Y-100348256D01*
X124447891Y-100352224D01*
X124447888Y-100352226D01*
X124319849Y-100427948D01*
X124319847Y-100427949D01*
X124313135Y-100431919D01*
X124307622Y-100437431D01*
X124305585Y-100439012D01*
X124256635Y-100462044D01*
X124202536Y-100462043D01*
X124153586Y-100439008D01*
X124139839Y-100428345D01*
X124011912Y-100352689D01*
X123997705Y-100346541D01*
X123855776Y-100305307D01*
X123848706Y-100306713D01*
X123845000Y-100319856D01*
X123845000Y-101901000D01*
X123828387Y-101963000D01*
X123783000Y-102008387D01*
X123721000Y-102025000D01*
X123469000Y-102025000D01*
X123407000Y-102008387D01*
X123361613Y-101963000D01*
X123345000Y-101901000D01*
X123345000Y-100319856D01*
X123340875Y-100305232D01*
X123338756Y-100303272D01*
X123299011Y-100285263D01*
X123263287Y-100241732D01*
X123250500Y-100186889D01*
X123250500Y-99772541D01*
X123269279Y-99706932D01*
X123319927Y-99661196D01*
X123387103Y-99649183D01*
X123399991Y-99650500D01*
X124150008Y-99650499D01*
X124252797Y-99639999D01*
X124419334Y-99584814D01*
X124568656Y-99492712D01*
X124692712Y-99368656D01*
X124784814Y-99219334D01*
X124839999Y-99052797D01*
X124850500Y-98950009D01*
X124850499Y-97983674D01*
X125650000Y-97983674D01*
X125653450Y-97996549D01*
X125666326Y-98000000D01*
X127783673Y-98000000D01*
X127796548Y-97996549D01*
X127799999Y-97983674D01*
X127799999Y-97553171D01*
X127799678Y-97546888D01*
X127790194Y-97454040D01*
X127787376Y-97440877D01*
X127736629Y-97287732D01*
X127730567Y-97274733D01*
X127646109Y-97137805D01*
X127637205Y-97126544D01*
X127523455Y-97012794D01*
X127512194Y-97003890D01*
X127391653Y-96929539D01*
X127347949Y-96883485D01*
X127332769Y-96821836D01*
X127350091Y-96760755D01*
X127395376Y-96716254D01*
X127456750Y-96700000D01*
X127644518Y-96700000D01*
X127651114Y-96699646D01*
X127699667Y-96694426D01*
X127714641Y-96690888D01*
X127833777Y-96646452D01*
X127849189Y-96638037D01*
X127950092Y-96562501D01*
X127962501Y-96550092D01*
X128038037Y-96449189D01*
X128046452Y-96433777D01*
X128090888Y-96314641D01*
X128094426Y-96299667D01*
X128099646Y-96251114D01*
X128100000Y-96244518D01*
X128100000Y-96016326D01*
X128096549Y-96003450D01*
X128083674Y-96000000D01*
X125816326Y-96000000D01*
X125803450Y-96003450D01*
X125800000Y-96016326D01*
X125800000Y-96244518D01*
X125800353Y-96251114D01*
X125805573Y-96299667D01*
X125809111Y-96314641D01*
X125853547Y-96433777D01*
X125861962Y-96449189D01*
X125937498Y-96550092D01*
X125949907Y-96562501D01*
X126050810Y-96638037D01*
X126066222Y-96646452D01*
X126125272Y-96668477D01*
X126175091Y-96702813D01*
X126202731Y-96756636D01*
X126201612Y-96817131D01*
X126172000Y-96869894D01*
X126120945Y-96902364D01*
X126087736Y-96913368D01*
X126074733Y-96919432D01*
X125937805Y-97003890D01*
X125926544Y-97012794D01*
X125812794Y-97126544D01*
X125803890Y-97137805D01*
X125719432Y-97274733D01*
X125713370Y-97287732D01*
X125662624Y-97440874D01*
X125659805Y-97454041D01*
X125650319Y-97546890D01*
X125650000Y-97553168D01*
X125650000Y-97983674D01*
X124850499Y-97983674D01*
X124850499Y-97549992D01*
X124839999Y-97447203D01*
X124784814Y-97280666D01*
X124714510Y-97166684D01*
X124696502Y-97137488D01*
X124696500Y-97137485D01*
X124692712Y-97131344D01*
X124568656Y-97007288D01*
X124568977Y-97006966D01*
X124537892Y-96968235D01*
X124525500Y-96914201D01*
X124525500Y-95746147D01*
X124542113Y-95684147D01*
X124587500Y-95638760D01*
X124649500Y-95622147D01*
X126120947Y-95622147D01*
X126125000Y-95622147D01*
X126255871Y-95604917D01*
X126377824Y-95554403D01*
X126384271Y-95549455D01*
X126384276Y-95549453D01*
X126415329Y-95525625D01*
X126450957Y-95506581D01*
X126490816Y-95500000D01*
X128083674Y-95500000D01*
X128096549Y-95496549D01*
X128100000Y-95483674D01*
X128100000Y-95255482D01*
X128099646Y-95248885D01*
X128094426Y-95200332D01*
X128090888Y-95185358D01*
X128046452Y-95066221D01*
X128043253Y-95060362D01*
X128028093Y-94999410D01*
X128040595Y-94953939D01*
X128037903Y-94952824D01*
X128057967Y-94904385D01*
X128088417Y-94830871D01*
X128105647Y-94700000D01*
X128105647Y-93800000D01*
X128088417Y-93669129D01*
X128085307Y-93661622D01*
X128083960Y-93656592D01*
X128082118Y-93600308D01*
X128105360Y-93549013D01*
X128148891Y-93513288D01*
X128203735Y-93500500D01*
X129062719Y-93500500D01*
X129119014Y-93514015D01*
G37*
%TD.AperFunction*%
%TA.AperFunction,Conductor*%
G36*
X132562001Y-94634939D02*
G01*
X132602229Y-94661819D01*
X132988181Y-95047771D01*
X133015061Y-95087999D01*
X133024500Y-95135452D01*
X133024500Y-95199126D01*
X133010985Y-95255421D01*
X132973385Y-95299444D01*
X132919898Y-95321599D01*
X132862182Y-95317057D01*
X132812819Y-95286807D01*
X132708154Y-95182142D01*
X132708153Y-95182141D01*
X132703044Y-95177032D01*
X132696894Y-95173238D01*
X132696892Y-95173237D01*
X132564845Y-95091789D01*
X132564843Y-95091788D01*
X132558697Y-95087997D01*
X132551842Y-95085725D01*
X132551841Y-95085725D01*
X132404136Y-95036781D01*
X132404135Y-95036780D01*
X132397708Y-95034651D01*
X132390975Y-95033963D01*
X132390970Y-95033962D01*
X132301476Y-95024819D01*
X132301459Y-95024818D01*
X132298345Y-95024500D01*
X132295196Y-95024500D01*
X131754805Y-95024500D01*
X131754785Y-95024500D01*
X131751656Y-95024501D01*
X131748524Y-95024820D01*
X131748522Y-95024821D01*
X131659027Y-95033962D01*
X131659017Y-95033963D01*
X131652292Y-95034651D01*
X131645870Y-95036778D01*
X131645865Y-95036780D01*
X131498158Y-95085725D01*
X131498154Y-95085726D01*
X131491303Y-95087997D01*
X131485159Y-95091786D01*
X131485154Y-95091789D01*
X131353104Y-95173239D01*
X131353099Y-95173242D01*
X131346956Y-95177032D01*
X131341855Y-95182132D01*
X131341841Y-95182144D01*
X131337317Y-95186668D01*
X131281730Y-95218755D01*
X131217547Y-95218752D01*
X131161964Y-95186659D01*
X131157842Y-95182537D01*
X131146580Y-95173632D01*
X131014633Y-95092246D01*
X130995082Y-95083129D01*
X130995990Y-95081180D01*
X130959729Y-95059125D01*
X130929613Y-95012283D01*
X130923033Y-94956986D01*
X130941316Y-94904385D01*
X130975789Y-94849522D01*
X131025118Y-94708545D01*
X131051263Y-94665159D01*
X131092574Y-94635846D01*
X131142161Y-94625500D01*
X132514548Y-94625500D01*
X132562001Y-94634939D01*
G37*
%TD.AperFunction*%
%TD*%
M02*
