%TF.GenerationSoftware,KiCad,Pcbnew,(7.0.0)*%
%TF.CreationDate,2023-08-01T12:49:58+01:00*%
%TF.ProjectId,TAStable,54415374-6162-46c6-952e-6b696361645f,rev?*%
%TF.SameCoordinates,Original*%
%TF.FileFunction,Soldermask,Top*%
%TF.FilePolarity,Negative*%
%FSLAX46Y46*%
G04 Gerber Fmt 4.6, Leading zero omitted, Abs format (unit mm)*
G04 Created by KiCad (PCBNEW (7.0.0)) date 2023-08-01 12:49:58*
%MOMM*%
%LPD*%
G01*
G04 APERTURE LIST*
G04 Aperture macros list*
%AMRoundRect*
0 Rectangle with rounded corners*
0 $1 Rounding radius*
0 $2 $3 $4 $5 $6 $7 $8 $9 X,Y pos of 4 corners*
0 Add a 4 corners polygon primitive as box body*
4,1,4,$2,$3,$4,$5,$6,$7,$8,$9,$2,$3,0*
0 Add four circle primitives for the rounded corners*
1,1,$1+$1,$2,$3*
1,1,$1+$1,$4,$5*
1,1,$1+$1,$6,$7*
1,1,$1+$1,$8,$9*
0 Add four rect primitives between the rounded corners*
20,1,$1+$1,$2,$3,$4,$5,0*
20,1,$1+$1,$4,$5,$6,$7,0*
20,1,$1+$1,$6,$7,$8,$9,0*
20,1,$1+$1,$8,$9,$2,$3,0*%
%AMFreePoly0*
4,1,9,3.862500,-0.866500,0.737500,-0.866500,0.737500,-0.450000,-0.737500,-0.450000,-0.737500,0.450000,0.737500,0.450000,0.737500,0.866500,3.862500,0.866500,3.862500,-0.866500,3.862500,-0.866500,$1*%
G04 Aperture macros list end*
%ADD10R,0.300000X1.400000*%
%ADD11RoundRect,0.225000X-0.225000X-0.250000X0.225000X-0.250000X0.225000X0.250000X-0.225000X0.250000X0*%
%ADD12R,1.700000X1.700000*%
%ADD13O,1.700000X1.700000*%
%ADD14RoundRect,0.200000X0.275000X-0.200000X0.275000X0.200000X-0.275000X0.200000X-0.275000X-0.200000X0*%
%ADD15R,0.650000X0.400000*%
%ADD16RoundRect,0.150000X0.150000X-0.825000X0.150000X0.825000X-0.150000X0.825000X-0.150000X-0.825000X0*%
%ADD17RoundRect,0.225000X0.225000X0.250000X-0.225000X0.250000X-0.225000X-0.250000X0.225000X-0.250000X0*%
%ADD18RoundRect,0.250000X-0.325000X-0.650000X0.325000X-0.650000X0.325000X0.650000X-0.325000X0.650000X0*%
%ADD19R,0.400000X0.650000*%
%ADD20R,1.300000X0.900000*%
%ADD21FreePoly0,180.000000*%
%ADD22RoundRect,0.225000X-0.250000X0.225000X-0.250000X-0.225000X0.250000X-0.225000X0.250000X0.225000X0*%
G04 APERTURE END LIST*
D10*
%TO.C,U2*%
X129249999Y-102699999D03*
X129749999Y-102699999D03*
X130249999Y-102699999D03*
X130749999Y-102699999D03*
X131249999Y-102699999D03*
X131249999Y-98299999D03*
X130749999Y-98299999D03*
X130249999Y-98299999D03*
X129749999Y-98299999D03*
X129249999Y-98299999D03*
%TD*%
D11*
%TO.C,C4*%
X135675000Y-103100000D03*
X137225000Y-103100000D03*
%TD*%
D12*
%TO.C,J1*%
X141249999Y-93649999D03*
D13*
X141249999Y-96189999D03*
X141249999Y-98729999D03*
X141249999Y-101269999D03*
X141249999Y-103809999D03*
X141249999Y-106349999D03*
%TD*%
D14*
%TO.C,R3*%
X133250000Y-100325000D03*
X133250000Y-98675000D03*
%TD*%
D15*
%TO.C,U3*%
X137199999Y-100899999D03*
X137199999Y-100249999D03*
X137199999Y-99599999D03*
X135299999Y-99599999D03*
X135299999Y-100899999D03*
%TD*%
D16*
%TO.C,U4*%
X123595000Y-106725000D03*
X124865000Y-106725000D03*
X126135000Y-106725000D03*
X127405000Y-106725000D03*
X127405000Y-101775000D03*
X126135000Y-101775000D03*
X124865000Y-101775000D03*
X123595000Y-101775000D03*
%TD*%
D17*
%TO.C,C8*%
X121775000Y-107250000D03*
X120225000Y-107250000D03*
%TD*%
D14*
%TO.C,R2*%
X134000000Y-96825000D03*
X134000000Y-95175000D03*
%TD*%
%TO.C,R1*%
X137000000Y-97825000D03*
X137000000Y-96175000D03*
%TD*%
D11*
%TO.C,C2*%
X128975000Y-105000000D03*
X130525000Y-105000000D03*
%TD*%
D18*
%TO.C,C6*%
X123775000Y-98250000D03*
X126725000Y-98250000D03*
%TD*%
D11*
%TO.C,C1*%
X130475000Y-96000000D03*
X132025000Y-96000000D03*
%TD*%
D19*
%TO.C,U1*%
X135849999Y-106949999D03*
X136499999Y-106949999D03*
X137149999Y-106949999D03*
X137149999Y-105049999D03*
X135849999Y-105049999D03*
%TD*%
D20*
%TO.C,U6*%
X126949999Y-95749999D03*
D21*
X126862500Y-94250000D03*
D20*
X126949999Y-92749999D03*
%TD*%
D22*
%TO.C,C5*%
X137250000Y-92725000D03*
X137250000Y-94275000D03*
%TD*%
D12*
%TO.C,J2*%
X120249999Y-103159999D03*
D13*
X120249999Y-100619999D03*
X120249999Y-98079999D03*
X120249999Y-95539999D03*
X120249999Y-92999999D03*
%TD*%
D11*
%TO.C,C7*%
X128975000Y-107250000D03*
X130525000Y-107250000D03*
%TD*%
D22*
%TO.C,C3*%
X133500000Y-105225000D03*
X133500000Y-106775000D03*
%TD*%
M02*
