%TF.GenerationSoftware,KiCad,Pcbnew,(7.0.0)*%
%TF.CreationDate,2023-08-01T12:49:58+01:00*%
%TF.ProjectId,TAStable,54415374-6162-46c6-952e-6b696361645f,rev?*%
%TF.SameCoordinates,Original*%
%TF.FileFunction,Copper,L2,Bot*%
%TF.FilePolarity,Positive*%
%FSLAX46Y46*%
G04 Gerber Fmt 4.6, Leading zero omitted, Abs format (unit mm)*
G04 Created by KiCad (PCBNEW (7.0.0)) date 2023-08-01 12:49:58*
%MOMM*%
%LPD*%
G01*
G04 APERTURE LIST*
%TA.AperFunction,ComponentPad*%
%ADD10R,1.700000X1.700000*%
%TD*%
%TA.AperFunction,ComponentPad*%
%ADD11O,1.700000X1.700000*%
%TD*%
%TA.AperFunction,ViaPad*%
%ADD12C,0.600000*%
%TD*%
%TA.AperFunction,ViaPad*%
%ADD13C,0.800000*%
%TD*%
%TA.AperFunction,Conductor*%
%ADD14C,0.508000*%
%TD*%
%TA.AperFunction,Conductor*%
%ADD15C,0.250000*%
%TD*%
%TA.AperFunction,Conductor*%
%ADD16C,0.254000*%
%TD*%
G04 APERTURE END LIST*
D10*
%TO.P,J1,1,Pin_1*%
%TO.N,+5V*%
X141249999Y-93649999D03*
D11*
%TO.P,J1,2,Pin_2*%
%TO.N,GND*%
X141249999Y-96189999D03*
%TO.P,J1,3,Pin_3*%
%TO.N,/I2C_SDA*%
X141249999Y-98729999D03*
%TO.P,J1,4,Pin_4*%
%TO.N,/I2C_SCL*%
X141249999Y-101269999D03*
%TO.P,J1,5,Pin_5*%
%TO.N,/21MHz_IN*%
X141249999Y-103809999D03*
%TO.P,J1,6,Pin_6*%
%TO.N,Net-(J1-Pin_6)*%
X141249999Y-106349999D03*
%TD*%
D10*
%TO.P,J2,1,Pin_1*%
%TO.N,/MCLR*%
X120249999Y-103159999D03*
D11*
%TO.P,J2,2,Pin_2*%
%TO.N,+3.3V*%
X120249999Y-100619999D03*
%TO.P,J2,3,Pin_3*%
%TO.N,GND*%
X120249999Y-98079999D03*
%TO.P,J2,4,Pin_4*%
%TO.N,/ICSPDAT*%
X120249999Y-95539999D03*
%TO.P,J2,5,Pin_5*%
%TO.N,/I2C_SCL*%
X120249999Y-92999999D03*
%TD*%
D12*
%TO.N,GND*%
X131250000Y-94750000D03*
X132000000Y-105000000D03*
D13*
X128133942Y-98133544D03*
D12*
X138250000Y-107750000D03*
X128750000Y-93750000D03*
X132000000Y-107250000D03*
D13*
X125250000Y-96500000D03*
X122000000Y-104000000D03*
D12*
X122250000Y-92750000D03*
D13*
X120500000Y-105750000D03*
D12*
X138220911Y-102529089D03*
%TO.N,/I2C_SCL*%
X130250000Y-94500000D03*
D13*
%TO.N,/MCLR*%
X127500000Y-105000000D03*
D12*
%TO.N,/ICSPDAT*%
X126500000Y-100000000D03*
%TD*%
D14*
%TO.N,GND*%
X141342500Y-95875000D02*
X141217500Y-95750000D01*
X141032500Y-96500000D02*
X139967500Y-96500000D01*
X142717500Y-96500000D02*
X141467500Y-96500000D01*
X141342500Y-96190000D02*
X141342500Y-95875000D01*
X141342500Y-96190000D02*
X141032500Y-96500000D01*
X142717500Y-95750000D02*
X141467500Y-95750000D01*
X141217500Y-95750000D02*
X139967500Y-95750000D01*
D15*
%TO.N,/I2C_SCL*%
X122000000Y-94750000D02*
X120250000Y-93000000D01*
X130000000Y-94750000D02*
X122000000Y-94750000D01*
X130250000Y-94500000D02*
X130000000Y-94750000D01*
%TO.N,/MCLR*%
X120250000Y-104000000D02*
X120250000Y-103160000D01*
X127500000Y-105000000D02*
X121250000Y-105000000D01*
X121250000Y-105000000D02*
X120250000Y-104000000D01*
D16*
%TO.N,/ICSPDAT*%
X126500000Y-99250000D02*
X122790000Y-95540000D01*
X126500000Y-100000000D02*
X126500000Y-99250000D01*
X122790000Y-95540000D02*
X120250000Y-95540000D01*
%TD*%
%TA.AperFunction,Conductor*%
%TO.N,GND*%
G36*
X119346537Y-91764015D02*
G01*
X119390560Y-91801615D01*
X119412715Y-91855102D01*
X119408173Y-91912818D01*
X119377923Y-91962181D01*
X119215334Y-92124769D01*
X119215328Y-92124775D01*
X119211505Y-92128599D01*
X119208402Y-92133029D01*
X119208399Y-92133034D01*
X119079073Y-92317731D01*
X119079068Y-92317738D01*
X119075965Y-92322171D01*
X119073677Y-92327077D01*
X119073675Y-92327081D01*
X118978386Y-92531427D01*
X118978383Y-92531432D01*
X118976097Y-92536337D01*
X118974698Y-92541557D01*
X118974694Y-92541569D01*
X118916337Y-92759365D01*
X118916335Y-92759371D01*
X118914937Y-92764592D01*
X118894341Y-93000000D01*
X118894813Y-93005395D01*
X118914465Y-93230017D01*
X118914465Y-93230020D01*
X118914937Y-93235408D01*
X118916336Y-93240630D01*
X118916337Y-93240634D01*
X118974694Y-93458430D01*
X118974697Y-93458438D01*
X118976097Y-93463663D01*
X118978385Y-93468570D01*
X118978386Y-93468572D01*
X119073678Y-93672927D01*
X119073681Y-93672933D01*
X119075965Y-93677830D01*
X119079064Y-93682257D01*
X119079066Y-93682259D01*
X119208399Y-93866966D01*
X119208402Y-93866970D01*
X119211505Y-93871401D01*
X119378599Y-94038495D01*
X119383032Y-94041599D01*
X119383038Y-94041604D01*
X119564158Y-94168425D01*
X119603024Y-94212743D01*
X119617035Y-94270000D01*
X119603024Y-94327257D01*
X119564158Y-94371575D01*
X119378599Y-94501505D01*
X119374775Y-94505328D01*
X119374769Y-94505334D01*
X119215334Y-94664769D01*
X119215328Y-94664775D01*
X119211505Y-94668599D01*
X119208402Y-94673029D01*
X119208399Y-94673034D01*
X119079073Y-94857731D01*
X119079068Y-94857738D01*
X119075965Y-94862171D01*
X119073677Y-94867077D01*
X119073675Y-94867081D01*
X118978386Y-95071427D01*
X118978383Y-95071432D01*
X118976097Y-95076337D01*
X118974698Y-95081557D01*
X118974694Y-95081569D01*
X118916337Y-95299365D01*
X118916335Y-95299371D01*
X118914937Y-95304592D01*
X118914465Y-95309977D01*
X118914465Y-95309982D01*
X118897142Y-95507982D01*
X118894341Y-95540000D01*
X118914937Y-95775408D01*
X118916336Y-95780630D01*
X118916337Y-95780634D01*
X118974694Y-95998430D01*
X118974697Y-95998438D01*
X118976097Y-96003663D01*
X118978385Y-96008570D01*
X118978386Y-96008572D01*
X119073678Y-96212927D01*
X119073681Y-96212933D01*
X119075965Y-96217830D01*
X119079064Y-96222257D01*
X119079066Y-96222259D01*
X119208399Y-96406966D01*
X119208402Y-96406970D01*
X119211505Y-96411401D01*
X119378599Y-96578495D01*
X119383031Y-96581598D01*
X119383033Y-96581600D01*
X119564595Y-96708731D01*
X119603460Y-96753049D01*
X119617471Y-96810306D01*
X119603460Y-96867563D01*
X119564595Y-96911881D01*
X119383352Y-97038788D01*
X119375092Y-97045719D01*
X119215719Y-97205092D01*
X119208784Y-97213357D01*
X119079508Y-97397982D01*
X119074110Y-97407332D01*
X118978856Y-97611602D01*
X118975168Y-97621736D01*
X118923056Y-97816219D01*
X118922688Y-97827448D01*
X118933631Y-97830000D01*
X121566369Y-97830000D01*
X121577311Y-97827448D01*
X121576943Y-97816219D01*
X121524831Y-97621736D01*
X121521143Y-97611602D01*
X121425889Y-97407332D01*
X121420491Y-97397982D01*
X121291215Y-97213357D01*
X121284280Y-97205092D01*
X121124909Y-97045721D01*
X121116643Y-97038784D01*
X120935405Y-96911880D01*
X120896540Y-96867562D01*
X120882529Y-96810305D01*
X120896540Y-96753048D01*
X120935406Y-96708730D01*
X121116961Y-96581604D01*
X121116961Y-96581603D01*
X121121401Y-96578495D01*
X121288495Y-96411401D01*
X121422250Y-96220377D01*
X121466570Y-96181511D01*
X121523827Y-96167500D01*
X122478719Y-96167500D01*
X122526172Y-96176939D01*
X122566400Y-96203819D01*
X125796453Y-99433872D01*
X125825813Y-99480598D01*
X125831992Y-99535436D01*
X125813767Y-99587524D01*
X125777911Y-99644588D01*
X125777907Y-99644594D01*
X125774211Y-99650478D01*
X125771915Y-99657036D01*
X125771913Y-99657043D01*
X125716930Y-99814175D01*
X125716928Y-99814182D01*
X125714632Y-99820745D01*
X125713852Y-99827662D01*
X125713852Y-99827665D01*
X125701451Y-99937731D01*
X125694435Y-100000000D01*
X125695215Y-100006923D01*
X125711496Y-100151427D01*
X125714632Y-100179255D01*
X125716928Y-100185819D01*
X125716930Y-100185824D01*
X125771913Y-100342956D01*
X125774211Y-100349522D01*
X125870184Y-100502262D01*
X125997738Y-100629816D01*
X126150478Y-100725789D01*
X126320745Y-100785368D01*
X126500000Y-100805565D01*
X126679255Y-100785368D01*
X126849522Y-100725789D01*
X127002262Y-100629816D01*
X127129816Y-100502262D01*
X127225789Y-100349522D01*
X127285368Y-100179255D01*
X127305565Y-100000000D01*
X127285368Y-99820745D01*
X127225789Y-99650478D01*
X127146505Y-99524299D01*
X127127500Y-99458328D01*
X127127500Y-99328040D01*
X127128024Y-99316928D01*
X127129680Y-99309523D01*
X127127561Y-99242095D01*
X127127500Y-99238200D01*
X127127500Y-99214414D01*
X127127500Y-99210524D01*
X127127012Y-99206660D01*
X127126994Y-99206516D01*
X127126076Y-99194859D01*
X127124700Y-99151057D01*
X127119082Y-99131720D01*
X127115138Y-99112679D01*
X127112616Y-99092707D01*
X127096480Y-99051953D01*
X127092697Y-99040903D01*
X127082645Y-99006302D01*
X127082644Y-99006300D01*
X127080468Y-98998809D01*
X127070222Y-98981485D01*
X127061660Y-98964007D01*
X127057125Y-98952551D01*
X127057124Y-98952549D01*
X127054253Y-98945297D01*
X127028478Y-98909822D01*
X127022086Y-98900091D01*
X126999763Y-98862344D01*
X126985530Y-98848111D01*
X126972894Y-98833316D01*
X126965650Y-98823345D01*
X126965645Y-98823340D01*
X126961063Y-98817033D01*
X126927287Y-98789091D01*
X126918647Y-98781228D01*
X123724600Y-95587181D01*
X123694350Y-95537818D01*
X123689808Y-95480102D01*
X123711963Y-95426615D01*
X123755986Y-95389015D01*
X123812281Y-95375500D01*
X129922225Y-95375500D01*
X129933280Y-95376021D01*
X129940667Y-95377673D01*
X130007872Y-95375561D01*
X130011768Y-95375500D01*
X130035448Y-95375500D01*
X130039350Y-95375500D01*
X130043313Y-95374999D01*
X130054963Y-95374080D01*
X130098627Y-95372709D01*
X130117861Y-95367119D01*
X130136917Y-95363174D01*
X130156792Y-95360664D01*
X130197395Y-95344587D01*
X130208450Y-95340802D01*
X130250390Y-95328618D01*
X130267629Y-95318422D01*
X130285102Y-95309862D01*
X130298888Y-95304404D01*
X130330652Y-95296477D01*
X130429255Y-95285368D01*
X130599522Y-95225789D01*
X130752262Y-95129816D01*
X130879816Y-95002262D01*
X130975789Y-94849522D01*
X131035368Y-94679255D01*
X131050542Y-94544578D01*
X139899500Y-94544578D01*
X139899501Y-94547872D01*
X139899853Y-94551150D01*
X139899854Y-94551161D01*
X139905079Y-94599768D01*
X139905080Y-94599773D01*
X139905909Y-94607483D01*
X139908619Y-94614749D01*
X139908620Y-94614753D01*
X139927275Y-94664769D01*
X139956204Y-94742331D01*
X140042454Y-94857546D01*
X140157669Y-94943796D01*
X140289598Y-94993002D01*
X140339977Y-95027981D01*
X140367431Y-95082825D01*
X140365242Y-95144118D01*
X140333947Y-95196865D01*
X140215714Y-95315098D01*
X140208784Y-95323357D01*
X140079508Y-95507982D01*
X140074110Y-95517332D01*
X139978856Y-95721602D01*
X139975168Y-95731736D01*
X139923056Y-95926219D01*
X139922688Y-95937448D01*
X139933631Y-95940000D01*
X142566369Y-95940000D01*
X142577311Y-95937448D01*
X142576943Y-95926219D01*
X142524831Y-95731736D01*
X142521143Y-95721602D01*
X142425889Y-95517332D01*
X142420491Y-95507982D01*
X142291215Y-95323357D01*
X142284280Y-95315092D01*
X142166053Y-95196865D01*
X142134757Y-95144119D01*
X142132568Y-95082825D01*
X142160022Y-95027981D01*
X142210398Y-94993003D01*
X142342331Y-94943796D01*
X142457546Y-94857546D01*
X142543796Y-94742331D01*
X142594091Y-94607483D01*
X142600500Y-94547873D01*
X142600499Y-92752128D01*
X142594091Y-92692517D01*
X142543796Y-92557669D01*
X142457546Y-92442454D01*
X142342331Y-92356204D01*
X142251084Y-92322171D01*
X142214752Y-92308620D01*
X142214750Y-92308619D01*
X142207483Y-92305909D01*
X142199770Y-92305079D01*
X142199767Y-92305079D01*
X142151180Y-92299855D01*
X142151169Y-92299854D01*
X142147873Y-92299500D01*
X142144550Y-92299500D01*
X140355439Y-92299500D01*
X140355420Y-92299500D01*
X140352128Y-92299501D01*
X140348850Y-92299853D01*
X140348838Y-92299854D01*
X140300231Y-92305079D01*
X140300225Y-92305080D01*
X140292517Y-92305909D01*
X140285252Y-92308618D01*
X140285246Y-92308620D01*
X140165980Y-92353104D01*
X140165978Y-92353104D01*
X140157669Y-92356204D01*
X140150572Y-92361516D01*
X140150568Y-92361519D01*
X140049550Y-92437141D01*
X140049546Y-92437144D01*
X140042454Y-92442454D01*
X140037144Y-92449546D01*
X140037141Y-92449550D01*
X139961519Y-92550568D01*
X139961516Y-92550572D01*
X139956204Y-92557669D01*
X139953104Y-92565978D01*
X139953104Y-92565980D01*
X139908620Y-92685247D01*
X139908619Y-92685250D01*
X139905909Y-92692517D01*
X139905079Y-92700227D01*
X139905079Y-92700232D01*
X139899855Y-92748819D01*
X139899854Y-92748831D01*
X139899500Y-92752127D01*
X139899500Y-92755448D01*
X139899500Y-92755449D01*
X139899500Y-94544560D01*
X139899500Y-94544578D01*
X131050542Y-94544578D01*
X131055565Y-94500000D01*
X131035368Y-94320745D01*
X130975789Y-94150478D01*
X130879816Y-93997738D01*
X130752262Y-93870184D01*
X130599522Y-93774211D01*
X130592959Y-93771914D01*
X130592956Y-93771913D01*
X130435824Y-93716930D01*
X130435819Y-93716928D01*
X130429255Y-93714632D01*
X130422335Y-93713852D01*
X130422334Y-93713852D01*
X130256923Y-93695215D01*
X130250000Y-93694435D01*
X130243077Y-93695215D01*
X130077665Y-93713852D01*
X130077662Y-93713852D01*
X130070745Y-93714632D01*
X130064182Y-93716928D01*
X130064175Y-93716930D01*
X129907043Y-93771913D01*
X129907036Y-93771915D01*
X129900478Y-93774211D01*
X129894590Y-93777910D01*
X129894587Y-93777912D01*
X129753638Y-93866476D01*
X129753633Y-93866479D01*
X129747738Y-93870184D01*
X129742813Y-93875108D01*
X129742809Y-93875112D01*
X129625112Y-93992809D01*
X129625108Y-93992813D01*
X129620184Y-93997738D01*
X129616481Y-94003631D01*
X129616474Y-94003640D01*
X129576994Y-94066473D01*
X129531982Y-94109028D01*
X129472001Y-94124500D01*
X122310452Y-94124500D01*
X122262999Y-94115061D01*
X122222771Y-94088181D01*
X121590237Y-93455647D01*
X121558143Y-93400059D01*
X121558143Y-93335872D01*
X121585063Y-93235408D01*
X121605659Y-93000000D01*
X121585063Y-92764592D01*
X121523903Y-92536337D01*
X121424035Y-92322171D01*
X121288495Y-92128599D01*
X121122077Y-91962181D01*
X121091827Y-91912818D01*
X121087285Y-91855102D01*
X121109440Y-91801615D01*
X121153463Y-91764015D01*
X121209758Y-91750500D01*
X145125500Y-91750500D01*
X145187500Y-91767113D01*
X145232887Y-91812500D01*
X145249500Y-91874500D01*
X145249500Y-108125500D01*
X145232887Y-108187500D01*
X145187500Y-108232887D01*
X145125500Y-108249500D01*
X129000099Y-108249500D01*
X118624500Y-108249500D01*
X118562500Y-108232887D01*
X118517113Y-108187500D01*
X118500500Y-108125500D01*
X118500500Y-106350000D01*
X139894341Y-106350000D01*
X139914937Y-106585408D01*
X139916336Y-106590630D01*
X139916337Y-106590634D01*
X139974694Y-106808430D01*
X139974697Y-106808438D01*
X139976097Y-106813663D01*
X139978385Y-106818570D01*
X139978386Y-106818572D01*
X140073678Y-107022927D01*
X140073681Y-107022933D01*
X140075965Y-107027830D01*
X140079064Y-107032257D01*
X140079066Y-107032259D01*
X140208399Y-107216966D01*
X140208402Y-107216970D01*
X140211505Y-107221401D01*
X140378599Y-107388495D01*
X140572170Y-107524035D01*
X140786337Y-107623903D01*
X141014592Y-107685063D01*
X141250000Y-107705659D01*
X141485408Y-107685063D01*
X141713663Y-107623903D01*
X141927830Y-107524035D01*
X142121401Y-107388495D01*
X142288495Y-107221401D01*
X142424035Y-107027830D01*
X142523903Y-106813663D01*
X142585063Y-106585408D01*
X142605659Y-106350000D01*
X142585063Y-106114592D01*
X142523903Y-105886337D01*
X142424035Y-105672171D01*
X142288495Y-105478599D01*
X142121401Y-105311505D01*
X142116968Y-105308401D01*
X142116961Y-105308395D01*
X141935842Y-105181575D01*
X141896976Y-105137257D01*
X141882965Y-105080000D01*
X141896976Y-105022743D01*
X141935842Y-104978425D01*
X142116961Y-104851604D01*
X142116961Y-104851603D01*
X142121401Y-104848495D01*
X142288495Y-104681401D01*
X142424035Y-104487830D01*
X142523903Y-104273663D01*
X142585063Y-104045408D01*
X142605659Y-103810000D01*
X142585063Y-103574592D01*
X142523903Y-103346337D01*
X142424035Y-103132171D01*
X142288495Y-102938599D01*
X142121401Y-102771505D01*
X142116968Y-102768401D01*
X142116961Y-102768395D01*
X141935842Y-102641575D01*
X141896976Y-102597257D01*
X141882965Y-102540000D01*
X141896976Y-102482743D01*
X141935842Y-102438425D01*
X142116961Y-102311604D01*
X142116961Y-102311603D01*
X142121401Y-102308495D01*
X142288495Y-102141401D01*
X142424035Y-101947830D01*
X142523903Y-101733663D01*
X142585063Y-101505408D01*
X142605659Y-101270000D01*
X142585063Y-101034592D01*
X142523903Y-100806337D01*
X142424035Y-100592171D01*
X142288495Y-100398599D01*
X142121401Y-100231505D01*
X142116968Y-100228401D01*
X142116961Y-100228395D01*
X141935842Y-100101575D01*
X141896976Y-100057257D01*
X141882965Y-100000000D01*
X141896976Y-99942743D01*
X141935842Y-99898425D01*
X142116961Y-99771604D01*
X142116961Y-99771603D01*
X142121401Y-99768495D01*
X142288495Y-99601401D01*
X142424035Y-99407830D01*
X142523903Y-99193663D01*
X142585063Y-98965408D01*
X142605659Y-98730000D01*
X142585063Y-98494592D01*
X142523903Y-98266337D01*
X142424035Y-98052171D01*
X142288495Y-97858599D01*
X142121401Y-97691505D01*
X142116970Y-97688402D01*
X142116966Y-97688399D01*
X141935405Y-97561269D01*
X141896540Y-97516951D01*
X141882529Y-97459694D01*
X141896540Y-97402437D01*
X141935406Y-97358119D01*
X142116638Y-97231219D01*
X142124909Y-97224278D01*
X142284278Y-97064909D01*
X142291215Y-97056643D01*
X142420498Y-96872008D01*
X142425886Y-96862676D01*
X142521143Y-96658397D01*
X142524831Y-96648263D01*
X142576943Y-96453780D01*
X142577311Y-96442551D01*
X142566369Y-96440000D01*
X139933631Y-96440000D01*
X139922688Y-96442551D01*
X139923056Y-96453780D01*
X139975168Y-96648263D01*
X139978856Y-96658397D01*
X140074113Y-96862676D01*
X140079501Y-96872008D01*
X140208784Y-97056643D01*
X140215721Y-97064909D01*
X140375090Y-97224278D01*
X140383356Y-97231215D01*
X140564595Y-97358120D01*
X140603460Y-97402438D01*
X140617471Y-97459695D01*
X140603460Y-97516952D01*
X140564594Y-97561270D01*
X140383034Y-97688399D01*
X140383029Y-97688402D01*
X140378599Y-97691505D01*
X140374775Y-97695328D01*
X140374769Y-97695334D01*
X140215334Y-97854769D01*
X140215328Y-97854775D01*
X140211505Y-97858599D01*
X140208402Y-97863029D01*
X140208399Y-97863034D01*
X140079073Y-98047731D01*
X140079068Y-98047738D01*
X140075965Y-98052171D01*
X140073677Y-98057077D01*
X140073675Y-98057081D01*
X139978386Y-98261427D01*
X139978383Y-98261432D01*
X139976097Y-98266337D01*
X139974698Y-98271557D01*
X139974694Y-98271569D01*
X139916337Y-98489365D01*
X139916335Y-98489371D01*
X139914937Y-98494592D01*
X139914465Y-98499977D01*
X139914465Y-98499982D01*
X139894813Y-98724605D01*
X139894341Y-98730000D01*
X139894813Y-98735395D01*
X139909220Y-98900071D01*
X139914937Y-98965408D01*
X139916336Y-98970630D01*
X139916337Y-98970634D01*
X139974694Y-99188430D01*
X139974697Y-99188438D01*
X139976097Y-99193663D01*
X139978385Y-99198570D01*
X139978386Y-99198572D01*
X140073678Y-99402927D01*
X140073681Y-99402933D01*
X140075965Y-99407830D01*
X140079064Y-99412257D01*
X140079066Y-99412259D01*
X140208399Y-99596966D01*
X140208402Y-99596970D01*
X140211505Y-99601401D01*
X140378599Y-99768495D01*
X140383032Y-99771599D01*
X140383038Y-99771604D01*
X140564158Y-99898425D01*
X140603024Y-99942743D01*
X140617035Y-100000000D01*
X140603024Y-100057257D01*
X140564159Y-100101575D01*
X140383041Y-100228395D01*
X140378599Y-100231505D01*
X140374775Y-100235328D01*
X140374769Y-100235334D01*
X140215334Y-100394769D01*
X140215328Y-100394775D01*
X140211505Y-100398599D01*
X140208402Y-100403029D01*
X140208399Y-100403034D01*
X140079073Y-100587731D01*
X140079068Y-100587738D01*
X140075965Y-100592171D01*
X140073677Y-100597077D01*
X140073675Y-100597081D01*
X139978386Y-100801427D01*
X139978383Y-100801432D01*
X139976097Y-100806337D01*
X139974698Y-100811557D01*
X139974694Y-100811569D01*
X139916337Y-101029365D01*
X139916335Y-101029371D01*
X139914937Y-101034592D01*
X139914465Y-101039977D01*
X139914465Y-101039982D01*
X139910214Y-101088572D01*
X139894341Y-101270000D01*
X139894813Y-101275395D01*
X139914046Y-101495232D01*
X139914937Y-101505408D01*
X139916336Y-101510630D01*
X139916337Y-101510634D01*
X139974694Y-101728430D01*
X139974697Y-101728438D01*
X139976097Y-101733663D01*
X139978385Y-101738570D01*
X139978386Y-101738572D01*
X140073678Y-101942927D01*
X140073681Y-101942933D01*
X140075965Y-101947830D01*
X140079064Y-101952257D01*
X140079066Y-101952259D01*
X140208399Y-102136966D01*
X140208402Y-102136970D01*
X140211505Y-102141401D01*
X140378599Y-102308495D01*
X140383032Y-102311599D01*
X140383038Y-102311604D01*
X140564158Y-102438425D01*
X140603024Y-102482743D01*
X140617035Y-102540000D01*
X140603024Y-102597257D01*
X140564159Y-102641575D01*
X140383041Y-102768395D01*
X140378599Y-102771505D01*
X140374775Y-102775328D01*
X140374769Y-102775334D01*
X140215334Y-102934769D01*
X140215328Y-102934775D01*
X140211505Y-102938599D01*
X140208402Y-102943029D01*
X140208399Y-102943034D01*
X140079073Y-103127731D01*
X140079068Y-103127738D01*
X140075965Y-103132171D01*
X140073677Y-103137077D01*
X140073675Y-103137081D01*
X139978386Y-103341427D01*
X139978383Y-103341432D01*
X139976097Y-103346337D01*
X139974698Y-103351557D01*
X139974694Y-103351569D01*
X139916337Y-103569365D01*
X139916335Y-103569371D01*
X139914937Y-103574592D01*
X139894341Y-103810000D01*
X139914937Y-104045408D01*
X139916336Y-104050630D01*
X139916337Y-104050634D01*
X139974694Y-104268430D01*
X139974697Y-104268438D01*
X139976097Y-104273663D01*
X139978385Y-104278570D01*
X139978386Y-104278572D01*
X140073678Y-104482927D01*
X140073681Y-104482933D01*
X140075965Y-104487830D01*
X140079064Y-104492257D01*
X140079066Y-104492259D01*
X140208399Y-104676966D01*
X140208402Y-104676970D01*
X140211505Y-104681401D01*
X140378599Y-104848495D01*
X140383032Y-104851599D01*
X140383038Y-104851604D01*
X140564158Y-104978425D01*
X140603024Y-105022743D01*
X140617035Y-105080000D01*
X140603024Y-105137257D01*
X140564159Y-105181575D01*
X140383041Y-105308395D01*
X140378599Y-105311505D01*
X140374775Y-105315328D01*
X140374769Y-105315334D01*
X140215334Y-105474769D01*
X140215328Y-105474775D01*
X140211505Y-105478599D01*
X140208402Y-105483029D01*
X140208399Y-105483034D01*
X140079073Y-105667731D01*
X140079068Y-105667738D01*
X140075965Y-105672171D01*
X140073677Y-105677077D01*
X140073675Y-105677081D01*
X139978386Y-105881427D01*
X139978383Y-105881432D01*
X139976097Y-105886337D01*
X139974698Y-105891557D01*
X139974694Y-105891569D01*
X139916337Y-106109365D01*
X139916335Y-106109371D01*
X139914937Y-106114592D01*
X139894341Y-106350000D01*
X118500500Y-106350000D01*
X118500500Y-100620000D01*
X118894341Y-100620000D01*
X118894813Y-100625395D01*
X118910643Y-100806337D01*
X118914937Y-100855408D01*
X118916336Y-100860630D01*
X118916337Y-100860634D01*
X118974694Y-101078430D01*
X118974697Y-101078438D01*
X118976097Y-101083663D01*
X118978385Y-101088570D01*
X118978386Y-101088572D01*
X119073678Y-101292927D01*
X119073681Y-101292933D01*
X119075965Y-101297830D01*
X119079064Y-101302257D01*
X119079066Y-101302259D01*
X119208399Y-101486966D01*
X119208402Y-101486970D01*
X119211505Y-101491401D01*
X119215336Y-101495232D01*
X119333430Y-101613326D01*
X119364726Y-101666072D01*
X119366915Y-101727365D01*
X119339462Y-101782210D01*
X119289083Y-101817189D01*
X119173702Y-101860223D01*
X119157669Y-101866204D01*
X119150572Y-101871516D01*
X119150568Y-101871519D01*
X119049550Y-101947141D01*
X119049546Y-101947144D01*
X119042454Y-101952454D01*
X119037144Y-101959546D01*
X119037141Y-101959550D01*
X118961519Y-102060568D01*
X118961516Y-102060572D01*
X118956204Y-102067669D01*
X118953104Y-102075978D01*
X118953104Y-102075980D01*
X118908620Y-102195247D01*
X118908619Y-102195250D01*
X118905909Y-102202517D01*
X118905079Y-102210227D01*
X118905079Y-102210232D01*
X118899855Y-102258819D01*
X118899854Y-102258831D01*
X118899500Y-102262127D01*
X118899500Y-102265448D01*
X118899500Y-102265449D01*
X118899500Y-104054560D01*
X118899500Y-104054578D01*
X118899501Y-104057872D01*
X118899853Y-104061150D01*
X118899854Y-104061161D01*
X118905079Y-104109768D01*
X118905080Y-104109773D01*
X118905909Y-104117483D01*
X118908619Y-104124749D01*
X118908620Y-104124753D01*
X118914867Y-104141501D01*
X118956204Y-104252331D01*
X118961518Y-104259430D01*
X118961519Y-104259431D01*
X119037086Y-104360376D01*
X119042454Y-104367546D01*
X119157669Y-104453796D01*
X119292517Y-104504091D01*
X119352127Y-104510500D01*
X119824547Y-104510499D01*
X119872000Y-104519938D01*
X119912228Y-104546818D01*
X120752707Y-105387297D01*
X120760156Y-105395483D01*
X120764214Y-105401877D01*
X120769899Y-105407215D01*
X120769901Y-105407218D01*
X120813239Y-105447915D01*
X120816036Y-105450626D01*
X120835530Y-105470120D01*
X120838615Y-105472513D01*
X120838701Y-105472580D01*
X120847573Y-105480158D01*
X120879418Y-105510062D01*
X120886248Y-105513817D01*
X120886251Y-105513819D01*
X120896971Y-105519712D01*
X120913222Y-105530386D01*
X120929064Y-105542674D01*
X120936221Y-105545771D01*
X120936223Y-105545772D01*
X120969155Y-105560022D01*
X120979650Y-105565164D01*
X121017908Y-105586197D01*
X121037312Y-105591179D01*
X121055714Y-105597480D01*
X121066941Y-105602338D01*
X121074105Y-105605438D01*
X121111697Y-105611391D01*
X121117239Y-105612269D01*
X121128682Y-105614639D01*
X121163425Y-105623560D01*
X121163426Y-105623560D01*
X121170981Y-105625500D01*
X121191017Y-105625500D01*
X121210402Y-105627025D01*
X121230196Y-105630160D01*
X121268276Y-105626560D01*
X121273676Y-105626050D01*
X121285345Y-105625500D01*
X126796252Y-105625500D01*
X126846685Y-105636219D01*
X126884781Y-105663895D01*
X126884950Y-105663709D01*
X126886728Y-105665310D01*
X126888398Y-105666523D01*
X126894129Y-105672888D01*
X127047270Y-105784151D01*
X127220197Y-105861144D01*
X127405354Y-105900500D01*
X127588143Y-105900500D01*
X127594646Y-105900500D01*
X127779803Y-105861144D01*
X127952730Y-105784151D01*
X128105871Y-105672888D01*
X128232533Y-105532216D01*
X128327179Y-105368284D01*
X128385674Y-105188256D01*
X128405460Y-105000000D01*
X128385674Y-104811744D01*
X128327179Y-104631716D01*
X128232533Y-104467784D01*
X128222728Y-104456895D01*
X128110220Y-104331942D01*
X128110219Y-104331941D01*
X128105871Y-104327112D01*
X128100613Y-104323292D01*
X128100611Y-104323290D01*
X127957988Y-104219669D01*
X127957987Y-104219668D01*
X127952730Y-104215849D01*
X127946792Y-104213205D01*
X127785745Y-104141501D01*
X127785740Y-104141499D01*
X127779803Y-104138856D01*
X127773444Y-104137504D01*
X127773440Y-104137503D01*
X127601008Y-104100852D01*
X127601005Y-104100851D01*
X127594646Y-104099500D01*
X127405354Y-104099500D01*
X127398995Y-104100851D01*
X127398991Y-104100852D01*
X127226559Y-104137503D01*
X127226552Y-104137505D01*
X127220197Y-104138856D01*
X127214262Y-104141498D01*
X127214254Y-104141501D01*
X127053207Y-104213205D01*
X127053202Y-104213207D01*
X127047270Y-104215849D01*
X127042016Y-104219665D01*
X127042011Y-104219669D01*
X126899388Y-104323290D01*
X126899381Y-104323295D01*
X126894129Y-104327112D01*
X126889780Y-104331941D01*
X126889781Y-104331941D01*
X126888399Y-104333476D01*
X126886728Y-104334689D01*
X126884950Y-104336291D01*
X126884781Y-104336104D01*
X126846685Y-104363781D01*
X126796252Y-104374500D01*
X121676823Y-104374500D01*
X121619348Y-104360376D01*
X121574967Y-104321220D01*
X121553790Y-104265954D01*
X121560641Y-104207167D01*
X121594091Y-104117483D01*
X121600500Y-104057873D01*
X121600499Y-102262128D01*
X121594091Y-102202517D01*
X121543796Y-102067669D01*
X121457546Y-101952454D01*
X121342331Y-101866204D01*
X121272359Y-101840106D01*
X121210916Y-101817189D01*
X121160537Y-101782210D01*
X121133084Y-101727365D01*
X121135273Y-101666072D01*
X121166566Y-101613329D01*
X121288495Y-101491401D01*
X121424035Y-101297830D01*
X121523903Y-101083663D01*
X121585063Y-100855408D01*
X121605659Y-100620000D01*
X121585063Y-100384592D01*
X121523903Y-100156337D01*
X121424035Y-99942171D01*
X121288495Y-99748599D01*
X121121401Y-99581505D01*
X121116970Y-99578402D01*
X121116966Y-99578399D01*
X120935405Y-99451269D01*
X120896540Y-99406951D01*
X120882529Y-99349694D01*
X120896540Y-99292437D01*
X120935406Y-99248119D01*
X121116638Y-99121219D01*
X121124909Y-99114278D01*
X121284278Y-98954909D01*
X121291215Y-98946643D01*
X121420498Y-98762008D01*
X121425886Y-98752676D01*
X121521143Y-98548397D01*
X121524831Y-98538263D01*
X121576943Y-98343780D01*
X121577311Y-98332551D01*
X121566369Y-98330000D01*
X118933631Y-98330000D01*
X118922688Y-98332551D01*
X118923056Y-98343780D01*
X118975168Y-98538263D01*
X118978856Y-98548397D01*
X119074113Y-98752676D01*
X119079501Y-98762008D01*
X119208784Y-98946643D01*
X119215721Y-98954909D01*
X119375090Y-99114278D01*
X119383356Y-99121215D01*
X119564595Y-99248120D01*
X119603460Y-99292438D01*
X119617471Y-99349695D01*
X119603460Y-99406952D01*
X119564594Y-99451270D01*
X119383034Y-99578399D01*
X119383029Y-99578402D01*
X119378599Y-99581505D01*
X119374775Y-99585328D01*
X119374769Y-99585334D01*
X119215334Y-99744769D01*
X119215328Y-99744775D01*
X119211505Y-99748599D01*
X119208402Y-99753029D01*
X119208399Y-99753034D01*
X119079073Y-99937731D01*
X119079068Y-99937738D01*
X119075965Y-99942171D01*
X119073677Y-99947077D01*
X119073675Y-99947081D01*
X118978386Y-100151427D01*
X118978383Y-100151432D01*
X118976097Y-100156337D01*
X118974698Y-100161557D01*
X118974694Y-100161569D01*
X118916337Y-100379365D01*
X118916335Y-100379371D01*
X118914937Y-100384592D01*
X118914465Y-100389977D01*
X118914465Y-100389982D01*
X118913323Y-100403034D01*
X118894341Y-100620000D01*
X118500500Y-100620000D01*
X118500500Y-91874500D01*
X118517113Y-91812500D01*
X118562500Y-91767113D01*
X118624500Y-91750500D01*
X119290242Y-91750500D01*
X119346537Y-91764015D01*
G37*
%TD.AperFunction*%
%TD*%
M02*
